<?xml version="1.0" encoding="UTF-8"?>
<svg id="Layer_2" data-name="Layer 2" xmlns="http://www.w3.org/2000/svg" viewBox="0 0 389.73 133.68">
  <defs>
    <style>
      .cls-1 {
        fill: #fff;
      }

      .cls-2 {
        fill: #ae8c42;
      }
    </style>
  </defs>
  <g id="Layer_1-2" data-name="Layer 1">
    <g>
      <g>
        <path class="cls-1" d="M33.63,56.32c-3.04,0-5.76-.68-8.14-2.05-2.39-1.37-4.26-3.25-5.63-5.63v6.93H10.95V0h10.2V22.68c1.42-2.44,3.28-4.33,5.59-5.67,2.31-1.34,5.01-2.02,8.11-2.02,2.59,0,4.95,.56,7.08,1.67,2.13,1.12,3.97,2.61,5.52,4.49,1.55,1.88,2.74,4.08,3.58,6.62,.84,2.54,1.26,5.2,1.26,7.99s-.47,5.58-1.41,8.07c-.94,2.49-2.25,4.66-3.92,6.51-1.67,1.85-3.65,3.31-5.94,4.38s-4.74,1.6-7.38,1.6Zm-2.82-8.68c1.62,0,3.12-.32,4.49-.95,1.37-.63,2.54-1.48,3.5-2.55,.96-1.07,1.71-2.31,2.25-3.73,.53-1.42,.8-2.94,.8-4.57s-.25-3.17-.76-4.64c-.51-1.47-1.23-2.76-2.17-3.88-.94-1.12-2.04-2-3.31-2.66-1.27-.66-2.66-.99-4.19-.99-2.28,0-4.33,.75-6.13,2.25-1.8,1.5-3.18,3.34-4.15,5.52v9.51c.35,1.02,.88,1.93,1.56,2.74,.68,.81,1.46,1.51,2.32,2.09,.86,.58,1.8,1.04,2.82,1.37,1.01,.33,2,.49,2.97,.49Z"/>
        <path class="cls-1" d="M70.08,56.32c-1.93,0-3.73-.32-5.4-.95s-3.12-1.52-4.34-2.66c-1.22-1.14-2.17-2.47-2.85-4-.69-1.52-1.03-3.2-1.03-5.02s.42-3.62,1.26-5.21c.84-1.6,2-2.96,3.5-4.07,1.5-1.12,3.28-1.99,5.37-2.63,2.08-.63,4.36-.95,6.85-.95,1.78,0,3.51,.15,5.21,.46,1.7,.3,3.21,.74,4.53,1.29v-2.28c0-2.64-.75-4.67-2.25-6.09-1.5-1.42-3.72-2.13-6.66-2.13-2.13,0-4.21,.38-6.24,1.14-2.03,.76-4.11,1.88-6.24,3.35l-3.12-6.47c5.12-3.4,10.66-5.1,16.59-5.1s10.19,1.41,13.36,4.22c3.17,2.82,4.76,6.89,4.76,12.22v12.41c0,1.07,.19,1.83,.57,2.28s1,.71,1.86,.76v8.68c-1.73,.35-3.22,.53-4.49,.53-1.93,0-3.41-.43-4.45-1.29-1.04-.86-1.69-2-1.94-3.42l-.23-2.21c-1.78,2.33-3.93,4.11-6.47,5.33-2.54,1.22-5.25,1.83-8.14,1.83Zm2.89-7.46c1.72,0,3.36-.3,4.91-.91,1.55-.61,2.75-1.42,3.62-2.44,1.12-.86,1.67-1.83,1.67-2.89v-4.57c-1.22-.46-2.54-.82-3.96-1.1-1.42-.28-2.79-.42-4.11-.42-2.64,0-4.79,.6-6.47,1.79-1.67,1.19-2.51,2.7-2.51,4.53,0,1.73,.66,3.16,1.98,4.3,1.32,1.14,2.94,1.71,4.87,1.71Z"/>
        <path class="cls-1" d="M100.37,35.62c0-2.79,.48-5.43,1.45-7.92,.96-2.49,2.36-4.67,4.19-6.55,1.83-1.88,4.03-3.37,6.62-4.49,2.59-1.12,5.5-1.67,8.75-1.67,4.36,0,8.08,.94,11.15,2.82,3.07,1.88,5.37,4.34,6.89,7.38l-9.97,3.04c-.86-1.47-2-2.6-3.42-3.39-1.42-.79-2.99-1.18-4.72-1.18-1.47,0-2.84,.29-4.11,.88-1.27,.58-2.37,1.4-3.31,2.44-.94,1.04-1.67,2.3-2.21,3.77-.53,1.47-.8,3.1-.8,4.87s.28,3.4,.84,4.87c.56,1.47,1.31,2.74,2.25,3.81,.94,1.07,2.04,1.89,3.31,2.47,1.27,.58,2.61,.88,4.03,.88,1.83,0,3.51-.46,5.06-1.37,1.55-.91,2.63-2.03,3.23-3.35l9.97,3.04c-1.37,3.04-3.63,5.53-6.77,7.46-3.15,1.93-6.93,2.89-11.34,2.89-3.25,0-6.16-.56-8.75-1.67-2.59-1.12-4.79-2.63-6.62-4.53-1.83-1.9-3.23-4.11-4.22-6.62-.99-2.51-1.48-5.14-1.48-7.88Z"/>
        <path class="cls-1" d="M173.06,55.56l-11.57-17.28-5.48,5.4v11.87h-10.2V0h10.2V33.72l15.98-17.96h10.88l-14.84,16.9,15.91,22.91h-10.88Z"/>
        <path class="cls-1" d="M202.81,56.32c-2.74,0-5.28-.53-7.61-1.6-2.33-1.07-4.34-2.54-6.01-4.41-1.67-1.88-2.98-4.07-3.92-6.58-.94-2.51-1.41-5.21-1.41-8.11s.44-5.58,1.33-8.07c.89-2.49,2.12-4.67,3.69-6.55,1.57-1.88,3.45-3.35,5.63-4.41,2.18-1.07,4.57-1.6,7.15-1.6,2.94,0,5.59,.71,7.95,2.13,2.36,1.42,4.2,3.27,5.52,5.56V0h10.2V43.84c0,1.07,.18,1.83,.53,2.28,.35,.46,.96,.71,1.83,.76v8.68c-1.78,.35-3.22,.53-4.34,.53-1.83,0-3.32-.46-4.49-1.37-1.17-.91-1.83-2.1-1.98-3.58l-.23-2.51c-1.47,2.54-3.46,4.45-5.97,5.75-2.51,1.29-5.14,1.94-7.88,1.94Zm2.66-8.68c.96,0,1.95-.16,2.97-.49,1.01-.33,1.95-.8,2.82-1.41,.86-.61,1.64-1.32,2.32-2.13,.69-.81,1.2-1.7,1.56-2.66v-9.51c-.41-1.12-.98-2.14-1.71-3.08-.74-.94-1.57-1.75-2.51-2.44-.94-.68-1.93-1.23-2.97-1.64-1.04-.41-2.07-.61-3.08-.61-1.52,0-2.93,.33-4.22,.99-1.29,.66-2.4,1.56-3.31,2.7-.91,1.14-1.62,2.45-2.13,3.92-.51,1.47-.76,2.99-.76,4.57,0,1.67,.28,3.22,.84,4.64,.56,1.42,1.32,2.66,2.28,3.73,.96,1.07,2.12,1.9,3.46,2.51,1.34,.61,2.83,.91,4.45,.91Z"/>
        <path class="cls-1" d="M259.13,24.51c-3.1,.05-5.86,.65-8.3,1.79-2.44,1.14-4.19,2.85-5.25,5.14v24.13h-10.2V15.68h9.36v8.52c.71-1.37,1.55-2.6,2.51-3.69,.96-1.09,2-2.04,3.12-2.85,1.12-.81,2.25-1.43,3.39-1.86,1.14-.43,2.25-.65,3.31-.65h1.26c.28,0,.54,.03,.8,.08v9.29Z"/>
        <path class="cls-1" d="M281.28,56.32c-3.25,0-6.16-.56-8.75-1.67-2.59-1.12-4.78-2.63-6.58-4.53-1.8-1.9-3.18-4.1-4.15-6.58-.96-2.49-1.45-5.1-1.45-7.84s.48-5.43,1.45-7.92c.96-2.49,2.35-4.68,4.15-6.58,1.8-1.9,4-3.41,6.58-4.53,2.59-1.12,5.5-1.67,8.75-1.67s6.15,.56,8.71,1.67c2.56,1.12,4.74,2.63,6.55,4.53,1.8,1.9,3.18,4.1,4.15,6.58,.96,2.49,1.45,5.13,1.45,7.92s-.48,5.35-1.45,7.84c-.96,2.49-2.33,4.68-4.11,6.58-1.78,1.9-3.96,3.41-6.55,4.53-2.59,1.12-5.51,1.67-8.75,1.67Zm-10.43-20.63c0,1.78,.27,3.39,.8,4.83,.53,1.45,1.27,2.7,2.21,3.77,.94,1.07,2.04,1.89,3.31,2.47,1.27,.58,2.64,.88,4.11,.88s2.84-.29,4.11-.88c1.27-.58,2.37-1.41,3.31-2.47,.94-1.07,1.67-2.33,2.21-3.81,.53-1.47,.8-3.09,.8-4.87s-.27-3.32-.8-4.79c-.53-1.47-1.27-2.74-2.21-3.81-.94-1.07-2.04-1.89-3.31-2.47-1.27-.58-2.64-.88-4.11-.88s-2.84,.3-4.11,.91c-1.27,.61-2.37,1.45-3.31,2.51-.94,1.07-1.67,2.33-2.21,3.81-.53,1.47-.8,3.07-.8,4.79Z"/>
        <path class="cls-1" d="M332.88,56.32c-3.15,0-5.89-.7-8.22-2.09-2.33-1.39-4.16-3.28-5.48-5.67v23.21h-10.2V15.68h8.9v6.85c1.47-2.33,3.37-4.17,5.71-5.52,2.33-1.34,5.02-2.02,8.07-2.02,2.69,0,5.18,.55,7.46,1.64,2.28,1.09,4.25,2.56,5.9,4.41,1.65,1.85,2.94,4.03,3.88,6.55,.94,2.51,1.41,5.16,1.41,7.95s-.43,5.61-1.29,8.14c-.86,2.54-2.07,4.74-3.62,6.62-1.55,1.88-3.39,3.35-5.52,4.41s-4.47,1.6-7,1.6Zm-3.42-8.68c1.52,0,2.93-.33,4.22-.99,1.29-.66,2.4-1.55,3.31-2.66,.91-1.12,1.62-2.41,2.13-3.88,.51-1.47,.76-2.99,.76-4.57,0-1.67-.28-3.23-.84-4.68-.56-1.45-1.33-2.7-2.32-3.77-.99-1.07-2.16-1.9-3.5-2.51-1.34-.61-2.8-.91-4.38-.91-.96,0-1.95,.17-2.97,.49-1.02,.33-1.95,.8-2.82,1.41-.86,.61-1.64,1.32-2.32,2.13-.69,.81-1.21,1.7-1.56,2.66v9.36c.91,2.28,2.31,4.17,4.19,5.67,1.88,1.5,3.91,2.25,6.09,2.25Z"/>
      </g>
      <g>
        <path class="cls-1" d="M99.31,122.63c-3.04,0-5.76-.68-8.14-2.05-2.39-1.37-4.26-3.25-5.63-5.63v6.93h-8.9v-55.56h10.2v22.68c1.42-2.44,3.28-4.33,5.59-5.67,2.31-1.34,5.01-2.02,8.11-2.02,2.59,0,4.95,.56,7.08,1.67,2.13,1.12,3.97,2.61,5.52,4.49,1.55,1.88,2.74,4.08,3.58,6.62,.84,2.54,1.26,5.2,1.26,7.99s-.47,5.58-1.41,8.07c-.94,2.49-2.25,4.66-3.92,6.51-1.67,1.85-3.65,3.31-5.94,4.38-2.28,1.07-4.74,1.6-7.38,1.6Zm-2.82-8.68c1.62,0,3.12-.32,4.49-.95,1.37-.63,2.54-1.48,3.5-2.55,.96-1.07,1.71-2.31,2.25-3.73,.53-1.42,.8-2.94,.8-4.57s-.25-3.17-.76-4.64c-.51-1.47-1.23-2.76-2.17-3.88-.94-1.12-2.04-2-3.31-2.66-1.27-.66-2.66-.99-4.19-.99-2.28,0-4.33,.75-6.13,2.25-1.8,1.5-3.18,3.34-4.15,5.52v9.51c.35,1.02,.88,1.93,1.56,2.74,.68,.81,1.46,1.51,2.32,2.09,.86,.58,1.8,1.04,2.82,1.37,1.01,.33,2,.49,2.97,.49Z"/>
        <path class="cls-1" d="M137.05,122.63c-4.11,0-7.23-1.32-9.36-3.96-2.13-2.64-3.2-6.55-3.2-11.72v-24.96h10.2v22.76c0,6.14,2.21,9.21,6.62,9.21,1.98,0,3.89-.6,5.75-1.79,1.85-1.19,3.36-3.01,4.53-5.44v-24.73h10.2v28.16c0,1.07,.19,1.83,.57,2.28s1,.71,1.86,.76v8.68c-1.02,.2-1.86,.33-2.55,.38-.68,.05-1.31,.08-1.86,.08-1.83,0-3.31-.42-4.45-1.26-1.14-.84-1.81-1.99-2.02-3.46l-.23-3.2c-1.78,2.74-4.06,4.79-6.85,6.16-2.79,1.37-5.86,2.05-9.21,2.05Z"/>
        <path class="cls-1" d="M186.98,122.63c-3.35,0-6.62-.53-9.82-1.6-3.2-1.07-5.94-2.59-8.22-4.57l3.81-6.39c2.44,1.73,4.81,3.03,7.12,3.92,2.31,.89,4.6,1.33,6.89,1.33,2.03,0,3.63-.38,4.79-1.14,1.17-.76,1.75-1.85,1.75-3.27s-.68-2.46-2.05-3.12c-1.37-.66-3.6-1.42-6.7-2.28-2.59-.71-4.79-1.39-6.62-2.05-1.83-.66-3.3-1.41-4.41-2.25-1.12-.84-1.93-1.8-2.44-2.89-.51-1.09-.76-2.4-.76-3.92,0-2.03,.39-3.86,1.18-5.48,.79-1.62,1.89-3.01,3.31-4.15,1.42-1.14,3.08-2.02,4.99-2.63,1.9-.61,3.97-.91,6.2-.91,2.99,0,5.8,.43,8.41,1.29,2.61,.86,5.01,2.26,7.19,4.19l-4.11,6.16c-2.03-1.52-4-2.64-5.9-3.35-1.9-.71-3.79-1.07-5.67-1.07-1.73,0-3.17,.36-4.34,1.07-1.17,.71-1.75,1.85-1.75,3.42,0,.71,.14,1.29,.42,1.75,.28,.46,.72,.86,1.33,1.22,.61,.36,1.41,.7,2.4,1.03,.99,.33,2.22,.67,3.69,1.03,2.74,.71,5.09,1.42,7.04,2.13,1.95,.71,3.55,1.52,4.79,2.44,1.24,.91,2.16,1.97,2.74,3.16,.58,1.19,.88,2.63,.88,4.3,0,3.91-1.45,6.99-4.34,9.25-2.89,2.26-6.82,3.39-11.8,3.39Z"/>
        <path class="cls-1" d="M209.74,76.43v-10.12h10.2v10.12h-10.2Zm0,45.44v-39.88h10.2v39.88h-10.2Z"/>
        <path class="cls-1" d="M266.21,121.87h-10.2v-22.38c0-3.2-.56-5.53-1.67-7-1.12-1.47-2.66-2.21-4.64-2.21-1.02,0-2.06,.2-3.12,.61-1.07,.41-2.07,.98-3.01,1.71-.94,.74-1.79,1.61-2.55,2.63-.76,1.02-1.32,2.13-1.67,3.35v23.29h-10.2v-39.88h9.21v7.38c1.47-2.54,3.6-4.52,6.39-5.94,2.79-1.42,5.94-2.13,9.44-2.13,2.49,0,4.52,.46,6.09,1.37,1.57,.91,2.79,2.11,3.65,3.58,.86,1.47,1.46,3.15,1.79,5.02,.33,1.88,.49,3.78,.49,5.71v24.89Z"/>
        <path class="cls-1" d="M293.61,122.63c-3.2,0-6.09-.55-8.68-1.64-2.59-1.09-4.79-2.57-6.62-4.45-1.83-1.88-3.23-4.06-4.22-6.55-.99-2.49-1.48-5.1-1.48-7.84s.48-5.52,1.45-8.03c.96-2.51,2.36-4.72,4.19-6.62,1.83-1.9,4.05-3.41,6.66-4.53,2.61-1.12,5.54-1.67,8.79-1.67s6.15,.56,8.71,1.67c2.56,1.12,4.74,2.61,6.55,4.49,1.8,1.88,3.17,4.06,4.11,6.55,.94,2.49,1.41,5.07,1.41,7.76,0,.66-.01,1.29-.04,1.9-.03,.61-.09,1.12-.19,1.52h-30.82c.15,1.57,.53,2.97,1.14,4.19s1.39,2.26,2.36,3.12c.96,.86,2.05,1.52,3.27,1.98,1.22,.46,2.49,.68,3.81,.68,2.03,0,3.94-.49,5.75-1.48,1.8-.99,3.03-2.3,3.69-3.92l8.75,2.44c-1.47,3.04-3.82,5.54-7.04,7.5-3.22,1.95-7.07,2.93-11.53,2.93Zm10.35-24.05c-.25-2.99-1.36-5.39-3.31-7.19-1.95-1.8-4.33-2.7-7.12-2.7-1.37,0-2.65,.24-3.84,.72-1.19,.48-2.25,1.15-3.16,2.02-.91,.86-1.66,1.9-2.25,3.12-.58,1.22-.93,2.56-1.03,4.03h20.7Z"/>
        <path class="cls-1" d="M335.77,122.63c-3.35,0-6.62-.53-9.82-1.6-3.2-1.07-5.94-2.59-8.22-4.57l3.81-6.39c2.44,1.73,4.81,3.03,7.12,3.92,2.31,.89,4.6,1.33,6.89,1.33,2.03,0,3.63-.38,4.79-1.14,1.17-.76,1.75-1.85,1.75-3.27s-.68-2.46-2.05-3.12c-1.37-.66-3.6-1.42-6.7-2.28-2.59-.71-4.79-1.39-6.62-2.05-1.83-.66-3.3-1.41-4.41-2.25-1.12-.84-1.93-1.8-2.44-2.89-.51-1.09-.76-2.4-.76-3.92,0-2.03,.39-3.86,1.18-5.48,.79-1.62,1.89-3.01,3.31-4.15,1.42-1.14,3.08-2.02,4.99-2.63,1.9-.61,3.97-.91,6.2-.91,2.99,0,5.8,.43,8.41,1.29,2.61,.86,5.01,2.26,7.19,4.19l-4.11,6.16c-2.03-1.52-4-2.64-5.9-3.35-1.9-.71-3.79-1.07-5.67-1.07-1.73,0-3.17,.36-4.34,1.07-1.17,.71-1.75,1.85-1.75,3.42,0,.71,.14,1.29,.42,1.75,.28,.46,.72,.86,1.33,1.22,.61,.36,1.41,.7,2.4,1.03,.99,.33,2.22,.67,3.69,1.03,2.74,.71,5.09,1.42,7.04,2.13,1.95,.71,3.55,1.52,4.79,2.44,1.24,.91,2.16,1.97,2.74,3.16,.58,1.19,.88,2.63,.88,4.3,0,3.91-1.45,6.99-4.34,9.25-2.89,2.26-6.82,3.39-11.8,3.39Z"/>
        <path class="cls-1" d="M373.59,122.63c-3.35,0-6.62-.53-9.82-1.6s-5.94-2.59-8.22-4.57l3.81-6.39c2.44,1.73,4.81,3.03,7.12,3.92,2.31,.89,4.6,1.33,6.89,1.33,2.03,0,3.63-.38,4.79-1.14,1.17-.76,1.75-1.85,1.75-3.27s-.68-2.46-2.05-3.12c-1.37-.66-3.6-1.42-6.7-2.28-2.59-.71-4.79-1.39-6.62-2.05-1.83-.66-3.3-1.41-4.41-2.25-1.12-.84-1.93-1.8-2.44-2.89-.51-1.09-.76-2.4-.76-3.92,0-2.03,.39-3.86,1.18-5.48,.79-1.62,1.89-3.01,3.31-4.15,1.42-1.14,3.08-2.02,4.99-2.63,1.9-.61,3.97-.91,6.2-.91,2.99,0,5.8,.43,8.41,1.29,2.61,.86,5.01,2.26,7.19,4.19l-4.11,6.16c-2.03-1.52-4-2.64-5.9-3.35-1.9-.71-3.79-1.07-5.67-1.07-1.73,0-3.17,.36-4.34,1.07-1.17,.71-1.75,1.85-1.75,3.42,0,.71,.14,1.29,.42,1.75,.28,.46,.72,.86,1.33,1.22,.61,.36,1.41,.7,2.4,1.03,.99,.33,2.22,.67,3.69,1.03,2.74,.71,5.09,1.42,7.04,2.13,1.95,.71,3.55,1.52,4.79,2.44,1.24,.91,2.16,1.97,2.74,3.16,.58,1.19,.88,2.63,.88,4.3,0,3.91-1.45,6.99-4.34,9.25-2.89,2.26-6.82,3.39-11.8,3.39Z"/>
      </g>
      <path class="cls-2" d="M23.05,100.62s-.27,.18-.55,.37c-.27,.14-.64,.37-.78,.5-.91,.69-2.47,1.69-3.2,2.15-.96,.5-.91,.5-2.06,1.23-1.28,.87-4.52,2.69-5.89,3.33-.41,.18-.96,.46-1.23,.64q-.55,.27,.41,1.46c.37,.41,.69,.96,.82,1.23,.09,.27,.18,.55,.23,.59,.09,.09,.32,1.37,.37,2.01,0,.32,.05,.73,.09,1,.05,.73,0,2.47-.14,3.11-.05,.32-.18,1-.27,1.6-.09,.55-.23,1.37-.37,1.83-.09,.46-.18,1-.18,1.28q-.09,.5,.05,.14c.18-.5,.32-.37,.18,.18-.05,.27-.23,.96-.37,1.55-.14,.64-.27,1.14-.37,1.23-.05,.05-.14,.46-.18,.82-.09,.37-.27,.91-.41,1.23-.14,.27-.23,.64-.23,.73s-.09,.37-.18,.5c-.18,.27-.18,.41-.09,.5,.05,.09,.05,.32-.14,.64-.14,.32-.23,.73-.23,.91,0,.27-.18,.64-.46,1.05-.96,1.37-1.46,1.51-3.01,.82-.55-.32-1.23-.69-1.51-.87-.14-.09-.23-.18-.37-.27C.08,131.41-.1,127.62,.03,125.15c.05-1.55,.23-3.06,.46-4.57,.09-1.55,.41-3.06,.5-4.61,.37-5.8,4.7-23.07,6.85-29.64,1.1-3.47,2.33-6.9,3.52-10.32,.5-1.37,1-2.69,1.6-3.97,.14-.23,.23-.46,.37-.69,.37-.78,.73-1.55,1.19-2.24,.18-.41,.32-.78,.37-1.23,.05-.18,.14-.23,.27-.18,.09-.32,.32-.78,.59-1.42,.46-1.05,.96-2.06,1.05-2.24s.37-.73,.59-1.23c.23-.55,.5-1.1,.64-1.19,.23-.27,.27-.27,.41-.09,.14,.14,.27,.23,.46,.14,.09,0,.18,.05,.27,.09,0,.09,.23,.14,.37,.14,.23,0,.37,.14,.46,.32,.05,.14,.23,.27,.37,.27,.27,0,1.37,1.42,1.46,1.92,.09,.32,.05,.46-.09,.73-.14,.18-.32,.55-.37,.82-.09,.27-.23,.59-.37,.73-.09,.14-.27,.41-.37,.59-.05,.18-.23,.64-.46,.96-.18,.37-.37,.73-.37,.87s-.09,.46-.23,.73-.41,.91-.59,1.42c-.23,.46-.46,1-.55,1.19-.5,1.1-.87,2.1-.87,2.24,0,.18-.73,2.15-.87,2.28-.09,.09-.82,1.92-.96,2.24-.09,.41-.32,.87-.64,1.55-.14,.37-.27,.82-.32,1.1,0,.32-.14,.64-.41,1.14-.27,.41-.55,.87-.59,1.1-.09,.27-.46,1.23-.82,2.24-.87,2.42-.87,2.79-.91,2.79,0,0-.14,.32-.27,.73-.09,.41-.23,.82-.27,.91-.09,.09-.32,.78-.55,1.51-.18,.78-.46,1.6-.55,1.92-.82,2.79-1.96,7.22-2.19,8.22,0,.05-.09,.5-.23,.96-.14,.41-.32,1.14-.41,1.6l-.14,.78,.32-.09c.5-.14,1.83-.69,2.56-1.1,.41-.23,.78-.37,.78-.37,.09,0,1.14-.59,2.42-1.32,.37-.18,1.28-.73,2.06-1.19s1.51-.87,1.6-.91c.09-.09,.37-.27,.64-.5,.23-.14,.55-.32,.73-.32,.14-.05,.46-.23,.69-.5,.23-.23,.64-.59,.96-.87,.41-.32,.59-.5,.59-.78,0-.18,.05-.32,.09-.37,.23-.09,.41,0,.59,.37,.05,.18,.37,.59,.64,.87,.27,.32,.5,.59,.46,.82,0,.14,.09,.27,.23,.37,.18,.09,.37,.55,.27,.78ZM2.27,112.77l-.14,.96c-.14,1.14-.32,2.33-.37,2.6s-.14,.96-.14,1.42c-.05,.5-.09,1-.09,1.05-.32,.59-.59,7.54-.37,9.27,.05,.32,.09,.64,.18,.91-.27-.96-.32-2.01-.37-2.97-.09-1.42-.09-2.88,0-4.29,.05-.18,.09-.41,0-.46,.05-.18,.05-.37,.05-.5,0-.27,.05-.5,.09-.78,.18-1.28,.41-2.6,.64-3.88,.18-1.14,.32-2.24,.5-3.33Zm1.32-6.71c-.05,.14-.09,.27-.14,.37,.05-.05,.09-.18,.14-.37Zm.59-3.7c.14-.46,.27-.96,.41-1.42l.27-1.1s0,.05-.05,.05c0,.05-.05,.09-.05,.09-.18,.78-.37,1.6-.59,2.38Zm4.75,11.46c-.09-.05-.14-.14-.09-.23,.18-.37-.87-2.83-1.42-3.43-.23-.23-.78-.23-.91-.05-.09,.14-.18,.55-.23,.96-.09,.41-.27,1.42-.41,2.24-.32,1.74-.64,4.07-.78,5.48-.05,.5-.14,1.23-.18,1.6-.23,1.23-.5,6.99-.37,7.99,0,.27,.05,.55,.09,.73,.09,.41,.27,.41,.55-.09,.27-.41,.46-.55,.37-.14-.09,.14-.05,.14,.14-.09,.14-.14,.37-.73,.55-1.28,.78-2.28,1.23-3.43,1.37-3.52,.09-.05,.14-.14,.05-.18s-.09-.14-.09-.27c.05-.09,.18-.59,.32-1.14,.18-.73,.32-.96,.41-.87,.14,0,.18-.05,.23-.27,0-.46,.05-.78,.27-1.83,.23-1.23,.46-3.11,.37-3.24,0-.09-.05-.59-.05-1.19,0-.78-.05-1.05-.18-1.19Zm-4.02-14.43s.05,.05,.05,.09l.69-2.88h-.05c-.09,.23-.14,.46-.18,.69,.05,.05,0,.09-.05,.18-.14,.64-.32,1.28-.46,1.92Zm.73-3.01l.05,.05c.05-.27,.14-.55,.18-.87,0,.05-.05,.05-.05,0-.05,.27-.14,.55-.18,.82Zm.46-1.87s0-.09,.05-.14c0,0,0-.05,.05-.05,.18-.82,.37-1.64,.55-2.47,.05,0,.05-.05,.05-.05,.09-.32,.14-.69,.23-1-.23,.91-.46,1.78-.69,2.65v.05c-.09,.32-.18,.64-.23,1Zm.91,32.07c0-.09-.09-.05-.14,.05s-.09,.27-.09,.32c0,.09,.05,.05,.09-.05s.14-.27,.14-.32Zm.09-.37c.09-.09,.14-.27,.14-.32,0-.09-.05-.05-.14,.05-.05,.09-.09,.27-.09,.32,0,.09,.05,.05,.09-.05Zm.23,.41c0-.18-.05-.18-.09,0-.09,.09-.14,.32-.14,.41q0,.18,.09,0c.09-.09,.14-.32,.14-.41Zm0-37l-.14,.55v.05c.05-.23,.09-.46,.18-.69-.05,.05-.05,.09-.05,.09Zm.14,35.45c0-.09-.05-.05-.09,.05s-.14,.27-.14,.37c0,.05,.05,0,.14-.09,.05-.09,.09-.27,.09-.32Zm.64-1.14c-.09-.14-.14,.05-.27,.73-.14,.73,0,.64,.23-.14,.05-.27,.09-.55,.05-.59Zm.05-1.51s-.27,.59-.27,.82c0,.09,.05-.05,.18-.27,.09-.27,.14-.5,.09-.55Zm.46,0c-.09-.14-.41,.46-.41,.78s.05,.27,.23-.18c.14-.32,.23-.59,.18-.59Zm.64-3.15c-.05-.18-.09-.18-.18,0s-.32,1.51-.27,1.64c0,.09-.05,.27-.09,.41-.09,.14-.09,.37-.05,.46,0,.18,.18-.18,.37-1,.14-.73,.23-1.42,.23-1.51Zm-.41-1.42c.05,.09,.05,.23,0,.32,0,.09-.05,0-.05-.18s.05-.27,.05-.14Zm.05-.59c.09-.05,.14,0,.14,.14,0,.23-.09,.27-.18,.05-.05-.05,0-.14,.05-.18Zm.23-4.89c0,.23,.05,.41,.09,.5,.14,.14,.18-.14,.05-.5l-.09-.32-.05,.32Zm.41,2.42c-.09-.05-.14,.37-.14,1.05,0,.64-.09,1.6-.14,2.15-.05,.64-.05,1,.05,1,.05,0,.14-.23,.18-.46,.09-.78,.14-3.65,.05-3.75Zm-.14-.64l.09,.37,.05-.37c0-.23,.05-.46-.05-.5-.14-.18-.18,.09-.09,.5Zm.23-1.6c.05,.23,.18,.41,.23,.41,.27,0,.46,1.23,.59,3.65,.09,1.46,.18,1,.14-.64-.05-1.55-.37-3.24-.64-3.2-.09,.05-.14-.05-.14-.14s-.09-.32-.23-.55c-.23-.32-.23-.18,.05,.46Zm.37,11.6c-.09-.09-.37,.82-.37,1.23,0,.37,.05,.18,.27-.5,.09-.41,.14-.69,.09-.73Zm0-10.6c0-.09-.05-.18-.09-.18s-.09,.09-.05,.18,.09,.23,.09,.23c.05,0,.05-.14,.05-.23Zm.18,2.24c-.05-.09-.09,0-.09,.23,0,.27,.05,.32,.05,.18,.05-.14,.05-.32,.05-.41Zm.5,8.22c-.09,.05-.14,0-.14-.14,0-.09,.05-.18,.14-.18,.14,0,.14,.23,0,.32Zm.55-19.14s-.14,.05-.18,.14c0,.05,0,.14,.05,.14,.09,0,.18-.09,.18-.14,.05-.09,.05-.14-.05-.14Zm.05-25.99s.05,0,.05,.05c.05-.14,.09-.23,.14-.37,0,0-.05,0-.05-.05,0,.05-.05,.14-.09,.18,0,.09,0,.14-.05,.18Zm.73,25.81c0-.18-.05-.18-.23-.09-.37,.23-.37,.27-.09,.27,.23,0,.32-.05,.32-.18Zm-.46-26.58s.05,0,.05-.05c.05-.05,.09-.09,.14-.09,.09-.18,.14-.37,.23-.59h-.14c-.09,.23-.18,.5-.27,.73Zm1.92,25.58c-.18,0-1.1,.59-1.1,.78,0,.09,.09,.14,.14,.05,.09-.05,.18-.09,.18-.14,0-.09,.09-.14,.14-.14,.14,0,.78-.55,.64-.55Zm7.31-4.25c0-.23-.32-.14-.78,.18-.23,.14-.73,.5-1.14,.73-.41,.27-.87,.55-1.1,.69-.18,.09-.82,.55-1.46,.91-2.06,1.28-2.56,1.64-2.51,1.74,.05,.14,1.19-.41,2.42-1.23,.46-.27,.82-.55,.82-.64s.05-.09,.09-.05c.09,.09,1.28-.59,1.37-.73,0-.09,.09-.14,.18-.14s.27-.09,.32-.32c.14-.18,.27-.32,.37-.23,.23,.09,1.42-.64,1.42-.91Zm-6.76-27.22c0,.09,.09,.09,.14,.09,.05-.05,.09-.14,.09-.23s-.05-.09-.09-.05c-.05,0-.14,.14-.14,.18Zm.27-.91c.18-.05,.41-.41,.59-.87-.23,.27-.41,.55-.59,.87Zm.46-1.55c.18-.18,.32-.41,.5-.59v-.18c-.09,.09-.23,.23-.32,.37-.05,.14-.09,.27-.18,.41Zm26.13,28.46c-.41,1.69-1.92,5.16-2.65,6.03-.09,.14-.32,.41-.41,.69-.14,.18-.59,.91-1.05,1.55s-.91,1.32-1.05,1.51c-1.83,2.6-2.79,3.47-5.48,4.7-.5,.18-1.83,.55-2.56,.69-.27,.05-.5,.14-.55,.18-.09,.23-2.92,.14-3.43-.05-.78-.27-1.28-.64-1.6-1.1-.23-.27-.82-.82-1.42-1.28-1.19-.87-1.46-1.23-1.87-2.19-.37-1-.46-2.24-.14-4.38,.14-1.46,.23-1.83,.82-3.75,.14-.46,.27-1,.27-1.19s.14-.37,.23-.41c.09,0,.18-.27,.27-.55,.05-.23,.14-.55,.18-.69,.09-.14,.23-.59,.37-.96,.14-.41,.32-.91,.5-1.14,.14-.27,.23-.55,.18-.64-.09-.05,0-.18,.09-.27s.32-.37,.46-.64c.32-.64,.37-.78,.82-1.51,.18-.32,.37-.64,.37-.78,0-.09,.09-.18,.18-.23s.23-.18,.23-.32c0-.09,.14-.37,.32-.59,.23-.27,.37-.55,.27-.69-.05-.18,.09-.41,.59-.87,.32-.32,1-.96,1.42-1.42,.41-.41,.91-.91,1.14-1,.18-.14,.32-.32,.27-.41,0-.09,.14-.27,.27-.37,.27-.18,.41-.23,.64-.05,.23,.14,.32,.14,.41-.05,.05-.09,.14-.14,.14-.05,0,.18,.59,.46,.91,.46,.09,0,.46,.18,.73,.41,.27,.27,.59,.46,.64,.46,.14,0,.27,.09,.37,.23,.14,.18,.37,.27,1,.27,2.42,.05,3.56,.32,4.93,1.1,1,.59,2.47,2.01,2.74,2.74,.64,1.55,.82,4.61,.41,6.53Zm-21.01,11.28c.05,.14,.14,.18,.18,.14,0,0,0-.14-.14-.23-.09-.14-.14-.14-.05,.09Zm2.79-12.97c.09,0,.18-.05,.18-.14s.14-.32,.27-.5c.14-.23,.27-.5,.27-.69,0-.27-.05-.27-.37-.14-.18,.09-.37,.18-.37,.27,0,.05-.27,.73-.59,1.42-.37,.73-.78,1.69-.91,2.1s-.32,.91-.41,1.05c-.23,.59-.82,2.56-.82,2.79q.05,.14,.14,.05c0-.09,.14-.18,.23-.18s.27-.23,.32-.55c.14-.55,.32-.96,.82-2.47,.14-.27,.27-.55,.32-.59,.05-.09,.09-.27,.09-.41s.09-.41,.18-.55,.27-.55,.37-.87,.23-.59,.27-.59Zm-2.1,8.95c-.14-.23-.37-.18-.37,.05,0,.09,.09,.18,.23,.09,.09,0,.18-.09,.14-.14Zm.32-2.28c-.14,.05-.27,.32-.37,.59-.23,.78-.23,.87,.09,.73,.27-.14,.27-.27,.23-.5-.05-.18,0-.37,.05-.41,.23-.14,.18-.5,0-.41Zm.14-.59c-.14-.27-.14-.18-.05,.18,.05,.09,.14,.18,.18,.14,0-.05,0-.18-.14-.32Zm.41-.91c-.14-.14-.41,.14-.41,.46,0,.14,.09,.14,.27-.05,.14-.18,.23-.32,.14-.41Zm.46-1.05c-.09-.09-.18-.14-.32-.05-.14,.05-.14,.14,0,.18,.27,.14,.5,0,.32-.14Zm.37-1.6c-.09-.05-.14,0-.05,.05,.05,.14,.05,.18-.05,.18-.23,0-.46,.82-.27,.87,.23,.09,.18,.09,.37-.5,.09-.32,.09-.55,0-.59Zm7.08,10.09c.18-.14,.37-.23,.41-.23,.27,0,2.69-2.33,3.47-3.38,.69-.87,.73-.91,1.92-2.69,.91-1.32,1.87-3.24,2.24-4.43s.69-3.06,.59-3.33c-.05-.14-.05-.27,.05-.41,.05-.18,.09-.18,.27-.05,.27,.23,.27,.05-.05-.23-.14-.14-.23-.46-.23-.87-.05-1-.23-1.96-.5-2.6l-.27-.59-2.56,.09c-2.24,.09-3.7,.14-4.93,.23-.18,0-.46,.23-.69,.5s-.5,.64-.64,.73c-.18,.18-.46,.55-1.14,1.83-.18,.41-.55,.96-.73,1.23-.18,.32-.32,.59-.32,.69,.05,.05-.09,.32-.27,.59-.23,.27-.37,.69-.46,.87-.05,.18-.27,.69-.5,1.1-.41,.78-.87,2.06-1.37,3.56-.14,.5-.32,1.05-.37,1.19-.09,.14-.23,.59-.27,1-.09,.41-.18,.78-.23,.87-.23,.37-.27,4.07-.09,4.98q.32,1.37,1.42,1.23c.55,0,1.46-.23,1.96-.41,1.37-.41,2.97-1.14,3.29-1.46Zm-6.67-11.15c-.14,.09-.14,.32,0,.32,.09,0,.18-.09,.18-.18,0-.14-.09-.18-.18-.14Zm.55-3.43c.09,.23,.18,.23,.32-.18,.09-.23,.18-.27,.27-.27q.14,.09,.09,0s.18-.55,.46-1.1,.46-1,.41-1-.32,.37-.64,.87c-.32,.41-.64,.96-.78,1.14-.09,.23-.18,.46-.14,.55Zm6.39,15.9s.23-.14,.41-.37c.27-.23,.37-.37,.27-.32-.23,.05-1.69,.96-1.69,.96,0,.18,.55,.05,.73-.14,.14-.14,.23-.18,.27-.14Zm10.78-17.17c-.09-.05-.09,.55-.09,1.32,0,1.46-.27,3.24-.55,4.07-.32,.69-.64,1.46-.96,2.06-.18,.32-.41,.78-.59,1.1-.14,.32-.41,.82-.69,1.14-.23,.37-.41,.69-.41,.73,0,.09-.27,.59-.96,1.42-.82,1.05-2.65,3.11-2.79,3.15-.18,.05-.23,.18-.14,.41s.05,.27-.23,.18c-.32-.09-.91,.37-.87,.73,.05,.09,0,.14-.23,.09-.32-.09-1.69,.82-1.87,1.23-.05,.18,0,.18,.14,.05,.18-.18,.27-.18,.37,0,.27,.46,1.46-.41,3.61-2.51,1.6-1.6,2.15-2.38,3.56-4.66,1.46-2.38,2.47-4.7,2.65-6.26,.05-.37,.14-.91,.23-1.28,.09-.64,0-2.79-.18-2.97Zm-1.96-.05c-.23,.23-.23,.27-.05,.18,.23-.09,.23,0,.23,.78,0,.59-.05,.87-.18,.91q-.23,.09,0,.23c.18,.14,.18,.32,.05,1-.09,.41-.18,.87-.23,.96-.05,.05-.05,.27-.05,.41s0,.32-.14,.41c-.05,0-.14,.18-.14,.37,0,.14-.09,.46-.18,.73-.37,.91-1.05,2.24-1.1,2.24s-.05-.09,.05-.18c0-.09,0-.23-.14-.23-.09,0-.14,.14-.05,.41,.05,.27,0,.41-.14,.55-.09,.14-.23,.27-.23,.37,0,.27-2.15,3.38-3.06,4.38-.5,.59-.69,.91-.46,.87,.09-.05,.23-.23,.32-.41,.14-.23,.32-.37,.46-.37,.23,0,.23-.09,.18-.32q-.09-.27,.14-.14c.18,.14,.27,.09,.59-.23,.14-.27,.32-.5,.32-.55,0-.14,.14-.27,.32-.46,.78-.73,2.33-2.97,2.92-4.11,.32-.69,.69-1.42,.73-1.55,.18-.27,.18-.37-.05-.37-.14,0-.18-.05-.14-.14,.05-.05,.18-.09,.23-.05,.23,.05,.64-1.23,.87-2.38,.05-.41,.05-.46-.23-.37-.18,.05-.23,0-.14-.27,0-.14,.14-.41,.23-.5,.14-.18,.14-.37,0-.96-.14-.41-.23-1.1-.23-1.51,0-.82-.23-1.78-.37-1.78-.05,0-.18-.05-.32-.09-.23-.05-.27,0-.18,.23,.37,1.42,.37,1.64,.14,1.92Zm-.91,5.98c.09-.05,.14-.14,.14-.23s-.05-.09-.14-.05c-.05,0-.14,.14-.14,.18,0,.09,.09,.09,.14,.09Zm.64-6.62c.05,.14,.14,.18,.18,.14,0,0,0-.14-.14-.23-.09-.14-.14-.14-.05,.09Zm6.03,22.88c-.05-.23-.18-.27-.37-.18-.23,.09-.73-.14-1.32-.64-.91-.78-1-.96-1.14-1.96-.05-.59,0-1.28,.09-1.46,.09-.23,.14-.55,.18-.78,0-.23,.05-.55,.18-.69,.09-.18,.18-.55,.23-.96,.05-.69,1.42-5.8,1.69-6.49,.09-.18,.41-1.1,.69-2.06,.27-.91,.64-2.19,.87-2.69,.27-.91,.5-1.64,.64-2.06,.23-1.32,3.38-9.77,3.79-10.41,.23-.41,1.1-.69,2.33-.69,.27,0,.91,.27,1.32,.55q.73,.59,.55,1.55c-.14,.59-1.05,3.33-2.19,6.26-1.1,2.88-1.92,5.3-1.83,5.39s-.05,.37-.23,.59c-.23,.23-.5,.87-.55,1.42-.09,.59-.27,1.1-.37,1.14-.14,.09-.14,.32-.14,.55,0,.14,.27-.14,.59-.78s.82-1.46,1.1-1.83c.23-.37,.37-.78,.32-.87-.14-.18-.05-.23,.14-.23,.18-.05,.46-.32,.64-.69,.41-.73,2.06-3.15,3.88-5.44,.59-.82,1.1-1.6,1.1-1.69-.05-.37,2.19-2.79,2.42-2.65,.09,.05,.23-.05,.18-.23,0-.18,.14-.41,.41-.5,.37-.18,.55-.59,.23-.55-.27,0-1.1,.69-2.1,1.74-.46,.5-.96,.96-1.14,.91-.14,0-.23,.14-.18,.32,.05,.41-3.24,4.7-3.24,4.34-.05-.18-.5,.27-1,.87-1,1.37-1,1.1,.05-.37,.41-.5,.87-.96,1-.96s.18-.23,.23-.55c0-.27,.09-.64,.32-.82q.27-.37,.23,.18c-.14,.41,.14,.18,.96-.87,1.28-1.64,1.46-2.15,.32-.69-.46,.46-.78,.78-.82,.69,0-.41,2.6-3.24,2.83-3.11,.09,.05,.14-.09,.05-.23-.18-.32,1.1-1.51,2.19-1.92,1.37-.55,3.47-.14,4.75,.96,1.1,.91,2.01,3.15,2.28,5.21,.14,1.6,.41,2.24,1.19,2.83,.37,.23,.46,.46,.41,1.14-.05,.78-.14,.78-.82,.82-.37,0-.73-.09-.69-.14,.05-.09,0-.18-.18-.14-.55,.05-1.83-1-2.51-2.19-.78-1.14-1.23-2.38-1.78-4.98-.18-.96-.41-1.28-.59-1.23-.18,0-.27,.18-.32,.41,.05,.23,0,.27-.09,.05-.18-.27-1.28,.69-2.65,2.51-.5,.69-1.28,1.64-1.64,2.1-1.92,2.38-6.17,9.14-7.35,11.74-.37,.73-.96,2.01-1.37,2.88-1.05,2.19-2.42,6.03-2.38,6.58,.05,.32-.05,.59-.14,.69-.05,.05-.09,.23,0,.41s.14,.27,.09,.27c-.09,0-.37,0-.69-.05-.41,0-.64-.18-.64-.37Zm.69-11.1c.18-.5,.59-1.96,.91-3.11,.32-1.19,.69-2.38,.82-2.6,.14-.32,.32-.78,.32-1.1,.09-.32,.59-2.01,1.14-3.65,.55-1.69,1-3.06,.91-3.11-.09-.09-2.01,4.8-2.38,6.17-.14,.41-.37,.96-.46,1.19-.14,.18-.27,.69-.32,1.05-.05,.46-.23,1.28-.46,1.83-.41,1.28-.41,1.32-1.37,4.61-.69,2.6-1.1,4.25-1,4.66,.05,.27,.87-2.01,1.23-3.61,.14-.78,.46-1.83,.64-2.33Zm1.46,1.14c.18-1.23,.59-2.51,1.6-5.66,.59-1.78,1-3.24,.96-3.24-.14-.09-1.19,2.69-1.14,3.06,0,.09-.23,.91-.59,1.83-.32,.87-.87,2.56-1.19,3.75-.32,1.14-.69,2.28-.73,2.47-.05,.14,0,.27,.14,.27s.32-.46,.5-.91c.14-.55,.37-1.23,.46-1.55Zm2.06,.14c.23-.59,.91-1.87,1.51-2.92,.55-1,1.32-2.38,1.69-2.97,1-1.78,2.74-4.7,3.47-5.57,.32-.5,.82-1.19,1.1-1.69,.23-.41,.59-.69,.69-.73,.18,0,.37-.41,.5-.82,.18-.78,1.46-2.24,2.24-2.65,.23-.05,.32-.23,.23-.37-.14-.14-.09-.23,.05-.27,.59-.09,.64-.18,.78-.27,.14-.14,0-.18-.27-.14-.23,0-1.05,.69-1.78,1.55-1.87,2.01-5.44,6.85-5.53,7.54-.05,.18-.23,.5-.37,.5-.41,.05-1.19,1.42-1,1.78,.09,.14,.09,.32,0,.41-.14,.09-.23,.05-.23-.14-.09-.14-.27,.05-.5,.46-.37,.41-.41,.82-.37,1.1,.14,.32,.09,.37-.14,.27-.46-.14-1.32,1.28-.96,1.46,.37,.23,.05,.5-.59,.87-.18,.05-.59,.73-.78,1.42-.27,.69-.55,1.32-.64,1.42-.14,.09-.18,.37-.18,.64,.05,.32-.09,.64-.18,.69-.18,.09-.18,.14-.05,.14,.09-.05,.37-.18,.5-.27,.23-.23,.55-.87,.82-1.42Zm1.92-8.18c.32-.32,.37-.32,.14,.18-.23,.55-.37,.64-.41,.32,0-.09,.14-.32,.27-.5Zm.78,2.19c.27-.05,.27,.09-.09,.46-.23,.23-.27,.23-.23-.09,.05-.23,.18-.37,.32-.37Z"/>
    </g>
  </g>
</svg>
