<?xml version="1.0" encoding="UTF-8"?>
<svg id="Layer_2" data-name="Layer 2" xmlns="http://www.w3.org/2000/svg" viewBox="0 0 104.16 104.16">
  <defs>
    <style>
      .cls-1 {
        fill: #fff;
      }

      .cls-2 {
        fill: #ae8c42;
      }
    </style>
  </defs>
  <g id="Layer_1-2" data-name="Layer 1">
    <g>
      <rect class="cls-2" x="0" y="0" width="104.16" height="104.16" rx="52.08" ry="52.08"/>
      <g>
        <path class="cls-1" d="M58.93,42.77l-18.61-7.24c-.49-.19-1.03,.17-1.03,.7v27.9c0,.53,.53,.89,1.03,.7l18.61-7.24c.29-.11,.48-.39,.48-.7v-13.41c0-.31-.19-.59-.48-.7Z"/>
        <path class="cls-1" d="M38.16,33.33c0-.91-.65-1.75-1.56-1.83-1.02-.09-1.87,.71-1.87,1.71v10.97s0,11.93,0,11.93c0,.01,0,.03,0,.05,0,.01,0,.02,0,.03v10.96c0,.95,.77,1.72,1.71,1.72v.16s0-.16,0-.16c.95,0,1.71-.77,1.71-1.72V33.33Z"/>
        <path class="cls-1" d="M31.55,46.83v6.69c0,.13,.05,.25,.14,.34l1.11,1.11c.3,.3,.81,.09,.81-.34v-8.9c0-.42-.51-.64-.81-.34l-1.11,1.11c-.09,.09-.14,.21-.14,.34Z"/>
        <path class="cls-1" d="M63.01,58.51v8.37l-.05,.13-1.54,1.55c-.4,.4-.62,.94-.62,1.5v.79c0,1.01,.82,1.83,1.83,1.83h4.2c.81,0,1.47-.66,1.47-1.47v-12.71h-.05s-.01,0-.02,0h-5.18s-.03,.01-.03,.03Z"/>
        <line class="cls-1" x1="72.61" y1="51.44" x2="72.61" y2="48.59"/>
        <path class="cls-1" d="M72.61,48.26h0c0-2.89-2.34-5.23-5.23-5.23h-6.49c-.18,0-.33,.15-.33,.33v13.64c0,.18,.15,.33,.33,.33h1.45s0,0,0,0h5.39c2.69-.01,4.88-2.21,4.88-4.9v-.67"/>
      </g>
      <path class="cls-1" d="M51.74,96.64c-24.57,0-44.56-19.99-44.56-44.56S27.17,7.52,51.74,7.52s44.56,19.99,44.56,44.56-19.99,44.56-44.56,44.56Zm0-88.39C27.57,8.25,7.91,27.91,7.91,52.08s19.66,43.83,43.83,43.83,43.83-19.66,43.83-43.83S75.91,8.25,51.74,8.25Z"/>
    </g>
  </g>
</svg>
