<svg width="20" height="20" viewBox="0 0 20 20" fill="none" xmlns="http://www.w3.org/2000/svg">
<path d="M2.48047 14.0249L5.78612 17.3249L4.9597 18.1499C4.04688 19.0611 2.56689 19.0611 1.65406 18.1499C0.741228 17.2386 0.741228 15.7612 1.65406 14.8499L2.48047 14.0249Z" fill="white"/>
<path d="M11.5703 4.94971L14.876 8.24968L6.61184 16.4996L3.30619 13.1996L11.5703 4.94971Z" fill="white"/>
<path d="M17.0322 2.14196C17.4474 1.96432 17.8672 2.38342 17.6893 2.79793L15.7029 7.42493L12.3972 4.12496L17.0322 2.14196Z" fill="white"/>
<path d="M4.77114 8.09695L4.40703 8.46043L4.78139 8.81339L15.3222 18.7515C16.2761 19.6509 17.7737 19.6296 18.7014 18.7034C19.6292 17.7772 19.6506 16.2822 18.7497 15.33L8.79447 4.80721L8.4409 4.43349L8.07679 4.79698L4.77114 8.09695Z" fill="white" stroke="currentColor"/>
<path d="M1.81884 1.85002L1.66059 1.37608L1.42321 1.45507L1.34409 1.69204L1.81884 1.85002ZM1.81884 1.85002C1.34409 1.69204 1.34396 1.69242 1.34383 1.69281L1.34356 1.69364L1.34296 1.69547L1.34154 1.69984L1.33794 1.71136C1.33522 1.72028 1.33187 1.73165 1.32805 1.74544C1.32041 1.77301 1.31089 1.81023 1.30078 1.85668C1.28055 1.94959 1.25788 2.07952 1.24299 2.24306C1.21317 2.57055 1.21464 3.03149 1.32813 3.59797C1.5562 4.73636 2.22947 6.26641 3.94422 7.97821L4.29807 8.33146L4.65193 7.97821L4.65582 7.97433L4.65974 7.97042L4.66369 7.96648L4.66767 7.9625L4.67168 7.9585L4.67571 7.95447L4.67978 7.95041L4.68388 7.94632L4.68801 7.9422L4.69216 7.93805L4.69635 7.93387L4.70056 7.92967L4.70481 7.92543L4.70908 7.92117L4.71338 7.91687L4.71771 7.91255L4.72206 7.9082L4.72645 7.90382L4.73086 7.89942L4.7353 7.89498L4.73977 7.89052L4.74427 7.88603L4.74879 7.88152L4.75335 7.87697L4.75793 7.8724L4.76253 7.8678L4.76717 7.86317L4.77183 7.85852L4.77652 7.85384L4.78123 7.84913L4.78597 7.8444L4.79074 7.83964L4.79554 7.83485L4.80036 7.83004L4.80521 7.8252L4.81008 7.82034L4.81498 7.81544L4.81991 7.81053L4.82486 7.80558L4.82983 7.80062L4.83484 7.79562L4.83986 7.7906L4.84492 7.78556L4.85 7.78049L4.8551 7.77539L4.86023 7.77027L4.86538 7.76513L4.87056 7.75996L4.87576 7.75477L4.88099 7.74955L4.88624 7.74431L4.89152 7.73904L4.89682 7.73375L4.90214 7.72843L4.90749 7.7231L4.91286 7.71773L4.91825 7.71235L4.92367 7.70694L4.92911 7.70151L4.93458 7.69605L4.94007 7.69057L4.94558 7.68507L4.95111 7.67954L4.95667 7.674L4.96225 7.66843L4.96785 7.66283L4.97348 7.65722L4.97913 7.65158L4.9848 7.64592L4.99049 7.64024L4.9962 7.63453L5.00194 7.62881L5.00769 7.62306L5.01347 7.61729L5.01927 7.6115L5.02509 7.60569L5.03094 7.59986L5.0368 7.594L5.04269 7.58813L5.04859 7.58223L5.05452 7.57632L5.06047 7.57038L5.06644 7.56442L5.07242 7.55844L5.07843 7.55244L5.08446 7.54642L5.09051 7.54038L5.09658 7.53433L5.10267 7.52825L5.10878 7.52215L5.11491 7.51603L5.12106 7.50989L5.12722 7.50374L5.13341 7.49756L5.13962 7.49136L5.14584 7.48515L5.15209 7.47892L5.15835 7.47267L5.16463 7.46639L5.17093 7.46011L5.17725 7.4538L5.18358 7.44747L5.18994 7.44113L5.19631 7.43477L5.2027 7.42839L5.20911 7.42199L5.21554 7.41557L5.22198 7.40914L5.22844 7.40269L5.23492 7.39622L5.24142 7.38974L5.24793 7.38323L5.25446 7.37672L5.26101 7.37018L5.26757 7.36363L5.27416 7.35706L5.28075 7.35047L5.28737 7.34387L5.294 7.33725L5.30064 7.33062L5.3073 7.32396L5.31398 7.3173L5.32068 7.31062L5.32739 7.30392L5.33411 7.2972L5.34085 7.29047L5.34761 7.28373L5.35438 7.27697L5.36117 7.27019L5.36797 7.2634L5.37479 7.2566L5.38162 7.24978L5.38846 7.24294L5.39532 7.2361L5.4022 7.22923L5.40909 7.22236L5.41599 7.21546L5.42291 7.20856L5.42984 7.20164L5.43679 7.1947L5.44375 7.18776L5.45072 7.1808L5.4577 7.17382L5.4647 7.16684L5.47172 7.15983L5.47874 7.15282L5.48578 7.14579L5.49283 7.13875L5.4999 7.1317L5.50698 7.12464L5.51406 7.11756L5.52117 7.11047L5.52828 7.10337L5.53541 7.09625L5.54255 7.08913L5.5497 7.08199L5.55686 7.07484L5.56403 7.06768L5.57122 7.0605L5.57842 7.05332L5.58563 7.04612L5.59284 7.03891L5.60008 7.0317L5.60732 7.02447L5.61457 7.01723L5.62183 7.00998L5.62911 7.00271L5.63639 6.99544L5.64369 6.98816L5.65099 6.98087L5.65831 6.97356L5.66563 6.96625L5.67297 6.95893L5.68031 6.9516L5.68767 6.94425L5.69503 6.9369L5.70241 6.92954L5.70979 6.92217L5.71718 6.91479L5.72459 6.9074L5.732 6.9L5.73942 6.8926L5.74684 6.88518L5.75428 6.87776L5.76173 6.87032L5.76918 6.86288L5.77664 6.85543L5.78411 6.84798L5.79159 6.84051L5.79908 6.83304L5.80657 6.82556L5.81407 6.81807L5.82158 6.81057L5.8291 6.80307L5.83662 6.79556L5.84415 6.78804L5.85169 6.78051L5.85924 6.77298L5.86679 6.76544L5.87435 6.75789L5.88191 6.75034L5.88949 6.74278L5.89707 6.73522L5.90465 6.72765L5.91224 6.72007L5.91984 6.71248L5.92744 6.70489L5.93505 6.6973L5.94266 6.6897L5.95028 6.68209L5.95791 6.67448L5.96554 6.66686L5.97317 6.65924L5.98082 6.65161L5.98846 6.64398L5.99611 6.63634L6.00377 6.6287L6.01143 6.62105L6.01909 6.6134L6.02676 6.60574L6.03443 6.59808L6.04211 6.59042L6.04979 6.58275L6.05748 6.57508L6.06517 6.5674L6.07286 6.55973L6.08056 6.55204L6.08825 6.54436L6.09596 6.53667L6.10366 6.52897L6.11137 6.52128L6.11908 6.51358L6.1268 6.50588L6.13452 6.49817L6.14224 6.49047L6.14996 6.48276L6.15769 6.47504L6.16541 6.46733L6.17314 6.45961L6.18087 6.4519L6.18861 6.44418L6.19634 6.43645L6.20408 6.42873L6.21182 6.421L6.21956 6.41328L6.2273 6.40555L6.23504 6.39782L6.24278 6.39009L6.25053 6.38236L6.25827 6.37463L6.26602 6.3669L6.27377 6.35916L6.28151 6.35143L6.28926 6.3437L6.29701 6.33596L6.30476 6.32823L6.3125 6.32049L6.32025 6.31276L6.328 6.30502L6.33574 6.29729L6.34349 6.28956L6.35124 6.28183L6.35898 6.27409L6.36673 6.26636L6.37447 6.25863L6.38221 6.2509L6.38995 6.24318L6.39769 6.23545L6.40543 6.22772L6.41317 6.22L6.4209 6.21228L6.42864 6.20456L6.43637 6.19684L6.4441 6.18912L6.45182 6.18141L6.45955 6.1737L6.46727 6.16599L6.47499 6.15828L6.48271 6.15058L6.49043 6.14288L6.49814 6.13518L6.50585 6.12748L6.51355 6.11979L6.52126 6.1121L6.52896 6.10441L6.53665 6.09673L6.54434 6.08905L6.55203 6.08137L6.55972 6.0737L6.5674 6.06603L6.57508 6.05837L6.58275 6.05071L6.59042 6.04305L6.59808 6.0354L6.60574 6.02776L6.6134 6.02011L6.62105 6.01248L6.62869 6.00484L6.63634 5.99722L6.64397 5.98959L6.6516 5.98198L6.65923 5.97436L6.66685 5.96676L6.67446 5.95916L6.68207 5.95156L6.68967 5.94397L6.69727 5.93639L6.70486 5.92881L6.71245 5.92124L6.72002 5.91367L6.7276 5.90611L6.73516 5.89856L6.74272 5.89101L6.75027 5.88348L6.75782 5.87594L6.76536 5.86842L6.77289 5.8609L6.78041 5.85339L6.78793 5.84588L6.79544 5.83839L6.80294 5.8309L6.81043 5.82342L6.81792 5.81594L6.8254 5.80848L6.83287 5.80102L6.84033 5.79357L6.84778 5.78613L6.85523 5.7787L6.86267 5.77127L6.87009 5.76386L6.87751 5.75645L6.88492 5.74905L6.89233 5.74167L6.89972 5.73429L6.9071 5.72691L6.91448 5.71955L6.92184 5.7122L6.9292 5.70486L6.93654 5.69753L6.94388 5.6902L6.9512 5.68289L6.95852 5.67559L6.96582 5.6683L6.97312 5.66101L6.9804 5.65374L6.98768 5.64648L6.99494 5.63923L7.00219 5.63199L7.00943 5.62476L7.01667 5.61754L7.02389 5.61033L7.03109 5.60314L7.03829 5.59595L7.04548 5.58878L7.05265 5.58162L7.05981 5.57447L7.06696 5.56733L7.0741 5.5602L7.08123 5.55309L7.08834 5.54598L7.09545 5.53889L7.10254 5.53182L7.10961 5.52475L7.11668 5.5177L7.12373 5.51066L7.13077 5.50363L7.13779 5.49662L7.14481 5.48962L7.15181 5.48263L7.15879 5.47566L7.16576 5.4687L7.17272 5.46175L7.17967 5.45482L7.1866 5.4479L7.19352 5.44099L7.20042 5.4341L7.20731 5.42722L7.21419 5.42036L7.22105 5.41351L7.22789 5.40668L7.23472 5.39986L7.24154 5.39305L7.24834 5.38626L7.25513 5.37949L7.2619 5.37273L7.26866 5.36598L7.2754 5.35925L7.28212 5.35254L7.28883 5.34584L7.29553 5.33916L7.30221 5.33249L7.30887 5.32584L7.31551 5.3192L7.32214 5.31259L7.32876 5.30598L7.33536 5.2994L7.34194 5.29283L7.3485 5.28627L7.35505 5.27974L7.36158 5.27322L7.36809 5.26672L7.37459 5.26023L7.38107 5.25376L7.38753 5.24731L7.39397 5.24088L7.4004 5.23447L7.40681 5.22807L7.4132 5.22169L7.41957 5.21533L7.42593 5.20898L7.43226 5.20266L7.43858 5.19635L7.44488 5.19006L7.45116 5.18379L7.45742 5.17754L7.46367 5.1713L7.46989 5.16509L7.4761 5.15889L7.48229 5.15272L7.48845 5.14656L7.4946 5.14042L7.50073 5.13431L7.50684 5.12821L7.51293 5.12213L7.519 5.11607L7.52505 5.11003L7.53108 5.10401L7.53709 5.09801L7.54307 5.09203L7.54904 5.08608L7.55499 5.08014L7.56092 5.07422L7.56682 5.06833L7.57271 5.06245L7.57857 5.0566L7.58442 5.05076L7.59024 5.04495L7.59604 5.03916L7.60182 5.03339L7.60757 5.02765L7.61331 5.02192L7.61902 5.01622L7.62472 5.01053L7.63038 5.00487L7.63603 4.99924L7.64166 4.99362L7.64726 4.98803L7.65284 4.98246L7.6584 4.97691L7.66393 4.97139L7.66944 4.96588L7.67493 4.9604L7.6804 4.95495L7.68584 4.94952L7.69126 4.94411L7.69665 4.93872L7.70202 4.93336L7.70737 4.92802L7.71269 4.92271L7.71799 4.91741L7.72327 4.91215L7.72852 4.90691L7.73375 4.90169L7.73895 4.89649L7.74413 4.89133L7.74928 4.88618L7.75441 4.88106L7.75951 4.87597L7.76459 4.8709L7.76965 4.86585L7.77467 4.86083L7.77968 4.85584L7.78465 4.85087L7.7896 4.84593L7.79453 4.84101L7.79943 4.83612L7.8043 4.83125L7.80915 4.82641L7.81397 4.8216L7.81877 4.81681L7.82354 4.81205L7.82828 4.80732L7.83299 4.80261L7.83768 4.79793L7.84234 4.79328L7.84698 4.78865L7.85158 4.78405L7.85616 4.77948L7.86072 4.77494L7.86524 4.77042L7.86974 4.76593L7.87421 4.76147L7.87865 4.75704L7.88306 4.75263L7.88745 4.74825L7.8918 4.7439L7.89613 4.73958L7.90043 4.73529L7.90471 4.73102L7.90895 4.72679L7.91316 4.72258L7.91735 4.7184L7.9215 4.71426L7.92563 4.71014L7.92973 4.70605L7.9338 4.70198L7.93783 4.69795L7.94184 4.69395L7.94582 4.68998L7.94977 4.68604L7.95369 4.68212L7.95758 4.67824L8.31144 4.32499L7.95758 3.97174C6.24284 2.25994 4.71015 1.58782 3.5698 1.36015C3.00235 1.24685 2.54062 1.24538 2.21256 1.27515C2.04873 1.29002 1.91859 1.31265 1.82552 1.33284C1.77898 1.34294 1.7417 1.35244 1.71408 1.36006C1.70027 1.36388 1.68888 1.36722 1.67995 1.36995L1.6684 1.37354L1.66403 1.37495L1.66219 1.37555L1.66136 1.37583C1.66097 1.37595 1.66059 1.37608 1.81884 1.85002Z" fill="white" stroke="currentColor"/>
</svg>
