<svg width="37" height="33" viewBox="0 0 37 33" fill="none" xmlns="http://www.w3.org/2000/svg">
<path d="M20.2478 17.4699V13.5446L11.5508 6.14355" stroke="#AA8942" stroke-width="1.5" stroke-linecap="round" stroke-linejoin="round"/>
<path d="M26.9394 7.47021L20.25 13.5454" stroke="#AA8942" stroke-width="1.5" stroke-linecap="round" stroke-linejoin="round"/>
<path d="M17.6349 11.3277C17.6349 11.3277 19.9796 6.57843 15.897 3.88168C11.8144 1.18493 5.125 1.46959 5.125 1.46959C5.125 1.46959 6.19621 9.15533 9.40984 11.3277C12.6235 13.5001 14.7659 12.6986 15.9045 12.6311" stroke="#AA8942" stroke-width="1.5" stroke-linecap="round" stroke-linejoin="round"/>
<path d="M23.649 10.4589C23.649 10.4589 25.8663 13.0133 29.3496 10.5113C32.8329 8.00935 32.2936 1.46973 32.2936 1.46973C32.2936 1.46973 26.0012 1.61955 23.5966 5.01296C22.5403 6.50366 22.4205 7.73218 22.6227 8.64608" stroke="#AA8942" stroke-width="1.5" stroke-linecap="round" stroke-linejoin="round"/>
<path d="M1.43945 32.1674H6.76553C7.23747 32.1674 7.627 31.7854 7.627 31.306V21.5827C7.627 21.1108 7.24496 20.7212 6.76553 20.7212H1.43945M7.627 23.1483H8.57835C9.17014 23.1483 9.74694 22.9311 10.1889 22.534L13.0205 20.0246C13.3651 19.7249 13.7996 19.5526 14.2565 19.5526H21.1857C22.1745 19.5526 22.9835 20.3542 22.9835 21.3505C22.9835 22.3393 22.182 23.1483 21.1857 23.1483H15.1105M7.627 30.7067H15.133C15.8071 30.7067 16.4813 30.5793 17.1106 30.3396L25.5154 27.9425L35.4485 20.4291C36.1227 19.9347 36.1901 18.9533 35.5908 18.3765C34.7218 17.545 33.4109 17.3802 32.3622 17.9645L25.0435 22.0771M4.54821 29.1935C4.54821 29.3283 4.43584 29.4407 4.301 29.4407C4.16617 29.4407 4.0538 29.3283 4.0538 29.1935C4.0538 29.0587 4.16617 28.9463 4.301 28.9463C4.43584 28.9463 4.54821 29.0587 4.54821 29.1935Z" stroke="#AA8942" stroke-width="1.5" stroke-linecap="round" stroke-linejoin="round"/>
</svg>
