<svg width="54" height="33" viewBox="0 0 54 33" fill="none" xmlns="http://www.w3.org/2000/svg">
<path d="M14.6522 27.1217H9.71884M34.089 27.1217H23.9774M9.59273 11.7281V0.941406H37.2568V16.3647H45.1279M13.8065 6.95049H5.7944M13.8065 11.7281H8.88054M13.8065 17.025H11.9741M20.1049 12.2474H17.36M43.0952 27.1217C43.0952 24.6884 41.1219 22.715 38.6885 22.715C36.2552 22.715 34.2819 24.6884 34.2819 27.1217C34.2819 29.555 36.2552 31.5284 38.6885 31.5284C41.1219 31.5284 43.0952 29.555 43.0952 27.1217ZM43.0952 27.1217H52.9991V15.6154L44.067 8.80514H37.2568M12.8866 21.58H7.8271M4.82256 11.7281H1.03906M14.8674 27.1217C14.8674 24.6884 16.8407 22.715 19.274 22.715C21.7073 22.715 23.6807 24.6884 23.6807 27.1217C23.6807 29.555 21.7073 31.5284 19.274 31.5284C16.8407 31.5284 14.8674 29.555 14.8674 27.1217Z" stroke="#AA8942" stroke-width="1.5" stroke-linecap="round" stroke-linejoin="round"/>
</svg>
