<svg width="27" height="22" viewBox="0 0 27 22" fill="none" xmlns="http://www.w3.org/2000/svg">
<path d="M25.379 20.6914L6.64648 6.47705" stroke="#AA8942" stroke-width="1.25" stroke-linecap="round" stroke-linejoin="round"/>
<path d="M10.4643 13.4719L8.65288 13.4474C8.46326 13.3299 8.27862 13.2125 8.09898 13.095C6.47723 12.0328 4.82054 10.6378 3.41335 9.35049L4.42134 8.89528L2.33052 8.32749C0.828524 6.82969 0.564053 4.51447 1.71176 2.73277C3.19878 1.18113 5.58401 0.853183 7.44529 1.94961C8.3884 2.50761 9.45128 3.16351 10.5042 3.88304L10.8535 5.85563L11.4074 4.51936C12.1559 5.05778 12.8794 5.62558 13.5381 6.19826C17.1609 9.37007 21.567 14.8375 20.105 16.6926C18.8275 18.3128 13.7177 16.3794 9.75567 14.1082L10.4643 13.4768V13.4719Z" stroke="#AA8942" stroke-width="1.25" stroke-linecap="round" stroke-linejoin="round"/>
</svg>
