<?xml version="1.0" encoding="UTF-8"?>
<svg id="Layer_2" data-name="Layer 2" xmlns="http://www.w3.org/2000/svg" viewBox="0 0 104.16 104.16">
  <defs>
    <style>
      .cls-1 {
        fill: #fff;
      }

      .cls-2 {
        fill: #ae8c42;
      }
    </style>
  </defs>
  <g id="Layer_1-2" data-name="Layer 1">
    <g>
      <rect class="cls-2" x="0" y="0" width="104.16" height="104.16" rx="52.08" ry="52.08"/>
      <g>
        <path class="cls-1" d="M55.75,41.49l-17.99-5.88-2.81,2.81,14.93,9.41c1.93-2.13,3.9-4.27,5.86-6.34h0Z"/>
        <path class="cls-1" d="M62.75,48.35c-2.07,1.96-4.2,3.93-6.34,5.87l9.4,14.92,2.81-2.81-5.87-17.98h0Z"/>
        <path class="cls-1" d="M47.22,67.56l-1.08-5.63h0s15.47-13.8,22.78-21.34c2.05-2.07,2.25-4.59,.75-6.1-1.51-1.5-4.03-1.3-6.1,.75-7.54,7.31-21.34,22.78-21.34,22.78h0s-5.63-1.07-5.63-1.07h-.07s-3.04,3.02-3.04,3.02l7.62,3.08,3.08,7.62,3.04-3.04v-.07h-.01Z"/>
      </g>
      <path class="cls-1" d="M52.08,96.64c-24.57,0-44.56-19.99-44.56-44.56S27.51,7.52,52.08,7.52s44.56,19.99,44.56,44.56-19.99,44.56-44.56,44.56Zm0-88.39C27.91,8.25,8.25,27.91,8.25,52.08s19.66,43.83,43.83,43.83,43.83-19.66,43.83-43.83S76.25,8.25,52.08,8.25Z"/>
    </g>
  </g>
</svg>
