<svg width="38" height="33" viewBox="0 0 38 33" fill="none" xmlns="http://www.w3.org/2000/svg">
<path d="M14.8365 27.5618C17.1662 30.1044 20.5167 31.7014 24.2429 31.7014C31.2884 31.7014 36.9999 25.9898 36.9999 18.9444C36.9999 11.8989 31.2884 6.18115 24.2429 6.18115C20.2662 6.18115 16.7153 8.00358 14.373 10.8531C13.4712 11.9553 12.751 13.2078 12.25 14.5731" stroke="#AA8942" stroke-width="1.5" stroke-linecap="round" stroke-linejoin="round"/>
<path d="M24.2415 20.1402C24.9056 20.1402 25.4439 19.6019 25.4439 18.9378C25.4439 18.2737 24.9056 17.7354 24.2415 17.7354C23.5774 17.7354 23.0391 18.2737 23.0391 18.9378C23.0391 19.6019 23.5774 20.1402 24.2415 20.1402Z" stroke="#AA8942" stroke-width="1.5" stroke-linecap="round" stroke-linejoin="round"/>
<path d="M29.815 22.0815L25.2871 19.5264" stroke="#AA8942" stroke-width="1.5" stroke-linecap="round" stroke-linejoin="round"/>
<path d="M22.9707 4.7219V3.71988H22.3507C22.2568 3.71988 22.1816 3.62594 22.1816 3.51321V1.81604C22.1816 1.70331 22.2568 1.60938 22.3507 1.60938H26.1271C26.221 1.60938 26.2962 1.70331 26.2962 1.81604V3.50695C26.2962 3.61968 26.221 3.71362 26.1271 3.71362H25.5259V4.71564" stroke="#AA8942" stroke-width="1.5" stroke-linecap="round" stroke-linejoin="round"/>
<path d="M33.4863 8.13486L33.956 7.64637L33.6679 7.37081C33.6241 7.32698 33.6304 7.25183 33.6867 7.19546L34.4758 6.36879C34.5322 6.31243 34.6073 6.29991 34.6512 6.34374L36.4172 8.02839C36.4611 8.07223 36.4548 8.14738 36.3984 8.20374L35.6094 9.03041C35.553 9.08677 35.4778 9.0993 35.434 9.05546L35.1522 8.78617L34.6825 9.27465" stroke="#AA8942" stroke-width="1.5" stroke-linecap="round" stroke-linejoin="round"/>
<path d="M16.0432 25.1132C17.9158 27.5932 20.8905 29.2027 24.241 29.2027C29.9087 29.2027 34.5054 24.6059 34.5054 18.9383C34.5054 13.2706 29.9087 8.67383 24.241 8.67383C21.8737 8.67383 19.6943 9.47544 17.9596 10.8219C16.92 11.6298 16.037 12.6318 15.3669 13.7779C14.4838 15.2934 13.9766 17.0595 13.9766 18.9383" stroke="#AA8942" stroke-width="1.5" stroke-linecap="round" stroke-linejoin="round"/>
<path d="M15.8246 14.9053H9.05469" stroke="#AA8942" stroke-width="1.5" stroke-linecap="round" stroke-linejoin="round"/>
<path d="M15.8244 18.9385H11.666" stroke="#AA8942" stroke-width="1.5" stroke-linecap="round" stroke-linejoin="round"/>
<path d="M15.8242 23.4097H14.2773" stroke="#AA8942" stroke-width="1.5" stroke-linecap="round" stroke-linejoin="round"/>
<path d="M3.89375 14.9053H1.57031" stroke="#AA8942" stroke-width="1.5" stroke-linecap="round" stroke-linejoin="round"/>
<path d="M15.0481 27.2554H10.7832" stroke="#AA8942" stroke-width="1.5" stroke-linecap="round" stroke-linejoin="round"/>
<path d="M8.23455 18.9385H5.04688" stroke="#AA8942" stroke-width="1.5" stroke-linecap="round" stroke-linejoin="round"/>
</svg>
