<?xml version="1.0" encoding="UTF-8"?>
<svg id="Layer_2" data-name="Layer 2" xmlns="http://www.w3.org/2000/svg" viewBox="0 0 104.16 104.16">
  <defs>
    <style>
      .cls-1 {
        fill: #fff;
      }

      .cls-2 {
        fill: #ae8c42;
      }
    </style>
  </defs>
  <g id="Layer_1-2" data-name="Layer 1">
    <g>
      <rect class="cls-2" x="0" y="0" width="104.16" height="104.16" rx="52.08" ry="52.08"/>
      <g>
        <path class="cls-1" d="M28.38,52.48c-.47,0-.84,.38-.84,.84s.38,.84,.84,.84h3.82v-1.69h-3.82Z"/>
        <path class="cls-1" d="M29.68,42.55c-.47,0-.84,.38-.84,.84s.38,.84,.84,.84h2.51v-1.69h-2.51Z"/>
        <path class="cls-1" d="M24.87,47.58c-.47,0-.84,.38-.84,.84s.38,.84,.84,.84h7.33v-1.69h-7.33Z"/>
        <path class="cls-1" d="M57.99,37.14h-23.26c-1.4,0-2.53,1.14-2.53,2.53v2.88h7.53c.47,0,.86,.39,.84,.87-.01,.46-.42,.82-.88,.82h-7.5v3.33h4.97c.5,0,.9,.44,.84,.96-.05,.43-.44,.73-.87,.73h-4.95v3.21h6.23c.5,0,.9,.44,.84,.96-.05,.43-.44,.73-.87,.73h-6.2v5.14c0,1.4,1.13,2.53,2.53,2.53h2.14v-.02c0-.63,.11-1.25,.3-1.85,.41-1.27,1.19-2.37,2.27-3.17,1.1-.82,2.41-1.25,3.78-1.25s2.68,.43,3.78,1.25c1.08,.8,1.86,1.9,2.27,3.17,.02,.06,.04,.11,.05,.17,.16,.54,.24,1.1,.25,1.67v.02h9.25c.93,0,1.69-.76,1.69-1.69v-20.49c0-1.4-1.14-2.53-2.53-2.53Z"/>
        <path class="cls-1" d="M79.65,50.86l-7.82-8.88c-.48-.55-1.17-.86-1.9-.86h-7.43c-.31,0-.56,.25-.56,.56v19.62c0,.31,.25,.56,.56,.56h.53s.07-.07,.11-.11c.03-.54,.12-1.07,.28-1.58,.02-.06,.04-.12,.06-.18,.31-.91,.84-1.74,1.51-2.42,1.18-1.18,2.82-1.86,4.5-1.86,.11,0,.22,0,.32,0,2.54,.13,4.82,1.84,5.67,4.27,.02,.06,.04,.12,.06,.19,.16,.51,.26,1.03,.28,1.57,0,0,0,0,0,0v.02s0,.05,0,.08c0,0,0,.01,0,.02h1.77c1.4,0,2.53-1.13,2.53-2.53v-7.17c0-.48-.18-.94-.49-1.3Zm-3.72,1.17c-.33,.69-1.05,1.11-1.82,1.11h-8.06c-1.09,0-1.97-.88-1.97-1.97v-4.71c0-1.09,.88-1.97,1.97-1.97h3.96c.57,0,1.11,.24,1.48,.67l4.15,4.71c.53,.6,.65,1.44,.29,2.16Z"/>
        <path class="cls-1" d="M74.43,61.82c-.02-.47-.12-.93-.27-1.36-.65-1.85-2.39-3.22-4.42-3.32-.66-.03-1.31,.07-1.92,.28-.08,.03-.15,.06-.23,.09-.08,.03-.15,.06-.22,.1-.51,.24-.98,.57-1.39,.98-.53,.53-.93,1.18-1.18,1.88-.16,.46-.25,.95-.27,1.44,0,.14,0,.29,0,.43,.13,2.5,2.19,4.56,4.69,4.69,.08,0,.17,0,.25,0,1.31,0,2.58-.52,3.51-1.45,.93-.93,1.45-2.19,1.45-3.5,0-.06,0-.11,0-.17,0-.03,0-.05,0-.08Zm-5.16,1.94c-.76-.1-1.37-.71-1.46-1.46-.14-1.11,.79-2.04,1.9-1.9,.76,.09,1.37,.71,1.46,1.46,.14,1.11-.79,2.04-1.9,1.9Z"/>
        <path class="cls-1" d="M48.17,61.82c-.02-.47-.12-.93-.27-1.36-.65-1.85-2.39-3.22-4.42-3.32-.66-.03-1.31,.07-1.92,.28-.08,.03-.15,.06-.23,.09-.08,.03-.15,.06-.22,.1-.51,.24-.98,.57-1.39,.98-.53,.53-.93,1.18-1.18,1.88-.16,.46-.25,.95-.27,1.44,0,.14,0,.29,0,.43,.13,2.5,2.19,4.56,4.69,4.69,.08,0,.17,0,.25,0,1.31,0,2.58-.52,3.51-1.45,.93-.93,1.45-2.19,1.45-3.5,0-.06,0-.11,0-.17,0-.03,0-.05,0-.08Zm-5.16,1.94c-.76-.1-1.37-.71-1.46-1.46-.14-1.11,.79-2.04,1.9-1.9,.76,.09,1.37,.71,1.46,1.46,.14,1.11-.79,2.04-1.9,1.9Z"/>
        <path class="cls-1" d="M70.21,46.28c-.05-.06-.13-.1-.21-.1h-3.96c-.16,0-.28,.13-.28,.28v4.71c0,.16,.13,.28,.28,.28h8.11c.16,0,.23-.1,.26-.17,.03-.06,.06-.18-.05-.3l-4.15-4.71Z"/>
      </g>
      <path class="cls-1" d="M52.08,96.64c-24.57,0-44.56-19.99-44.56-44.56S27.51,7.52,52.08,7.52s44.56,19.99,44.56,44.56-19.99,44.56-44.56,44.56Zm0-88.39C27.91,8.25,8.25,27.91,8.25,52.08s19.66,43.83,43.83,43.83,43.83-19.66,43.83-43.83S76.25,8.25,52.08,8.25Z"/>
    </g>
  </g>
</svg>
