<?xml version="1.0" encoding="UTF-8"?>
<svg id="Layer_2" data-name="Layer 2" xmlns="http://www.w3.org/2000/svg" viewBox="0 0 263.21 38.52">
  <defs>
    <style>
      .cls-1 {
        fill: #fff;
      }
    </style>
  </defs>
  <g id="Layer_1-2" data-name="Layer 1">
    <g>
      <polygon class="cls-1" points="10.43 4.51 10.43 25.61 7.51 25.61 7.51 4.51 0 4.51 0 1.72 17.93 1.72 17.93 4.51 10.43 4.51 10.43 4.51"/>
      <path class="cls-1" d="M27.4,10.36c-.75-.05-1.48,.02-2.17,.21-.69,.19-1.29,.48-1.81,.89-.52,.41-.93,.94-1.24,1.59-.31,.64-.46,1.41-.46,2.3v10.26h-2.93V7.88h2.82v2c.35-.48,.74-.89,1.19-1.22,.44-.33,.93-.6,1.44-.79,.52-.2,1.04-.33,1.58-.4,.54-.07,1.06-.07,1.57,0v2.89h0Z"/>
      <path class="cls-1" d="M41.85,16.07c-.6,.53-1.38,.88-2.34,1.05-.96,.17-1.97,.29-3.03,.36-.96,.07-1.75,.2-2.36,.38-.61,.18-1.09,.41-1.45,.69-.36,.28-.6,.59-.72,.93-.13,.35-.19,.7-.19,1.07,0,.48,.11,.89,.32,1.24,.22,.35,.52,.63,.9,.86,.38,.23,.81,.39,1.31,.5,.49,.1,1.03,.15,1.6,.15,.76,0,1.49-.08,2.2-.26,.71-.17,1.34-.43,1.89-.79,.55-.36,1-.82,1.32-1.4,.33-.57,.51-1.26,.54-2.06v-2.72h0Zm.19,8.64c-.08-.34-.13-.72-.16-1.13-.64,.78-1.47,1.38-2.5,1.81-1.02,.43-2.22,.64-3.6,.64-.91,0-1.79-.1-2.63-.31-.84-.21-1.57-.53-2.2-.98-.63-.45-1.13-1.02-1.51-1.71-.38-.69-.57-1.51-.57-2.47,0-1.84,.63-3.19,1.9-4.07,1.26-.87,3.04-1.36,5.34-1.48,1.08-.05,1.98-.13,2.72-.26,.73-.13,1.33-.29,1.77-.5,.45-.21,.77-.45,.96-.72,.2-.28,.29-.58,.29-.93,0-.71-.34-1.3-1.03-1.77-.68-.47-1.79-.71-3.3-.71-.46,0-.95,.05-1.47,.14-.52,.09-.99,.25-1.43,.48-.44,.23-.81,.55-1.13,.96-.32,.41-.52,.94-.59,1.59h-3.03c.11-1.79,.85-3.21,2.2-4.27,1.35-1.06,3.18-1.58,5.48-1.58s4.18,.5,5.37,1.51c1.19,1.01,1.79,2.34,1.79,4v9.77c0,.46,.05,.97,.15,1.53,.1,.57,.22,1.02,.36,1.36h-2.89c-.11-.25-.21-.55-.29-.89h0Z"/>
      <path class="cls-1" d="M62.78,14.22c-.32-.8-.76-1.51-1.31-2.12-.55-.61-1.19-1.09-1.91-1.43-.72-.35-1.5-.52-2.32-.52s-1.61,.17-2.34,.52c-.73,.34-1.37,.82-1.89,1.43-.53,.61-.95,1.31-1.26,2.12-.31,.8-.46,1.66-.46,2.58s.16,1.75,.46,2.55c.31,.8,.73,1.5,1.26,2.1,.53,.6,1.16,1.07,1.89,1.41,.73,.34,1.51,.52,2.34,.52s1.6-.18,2.32-.52c.72-.34,1.36-.82,1.91-1.41,.55-.6,.99-1.3,1.31-2.1,.32-.8,.48-1.65,.48-2.55s-.16-1.78-.48-2.58h0Zm3.4,11.39h-2.82v-2.86c-.62,.92-1.47,1.7-2.55,2.34-1.08,.64-2.27,.96-3.58,.96s-2.47-.24-3.55-.72c-1.08-.48-2.01-1.15-2.81-2-.79-.85-1.41-1.83-1.86-2.96-.45-1.12-.67-2.33-.67-3.61s.22-2.49,.67-3.63c.45-1.14,1.07-2.12,1.86-2.96,.79-.84,1.73-1.5,2.81-2,1.08-.49,2.26-.74,3.55-.74s2.45,.3,3.49,.91c1.04,.61,1.89,1.35,2.53,2.22V.06h2.92V25.61h0Z"/>
      <path class="cls-1" d="M84.53,14.9c-.18-.71-.46-1.36-.84-1.96-.38-.6-.82-1.11-1.33-1.53-.5-.42-1.06-.75-1.67-.98-.61-.23-1.23-.35-1.88-.35s-1.24,.11-1.84,.33c-.61,.22-1.17,.53-1.69,.95-.52,.41-.97,.92-1.38,1.51-.4,.6-.69,1.27-.88,2.03h11.5Zm2.82,5.2c-.62,1.91-1.65,3.37-3.1,4.39-1.44,1.02-3.2,1.53-5.27,1.53-1.29,0-2.48-.24-3.58-.72-1.1-.48-2.06-1.14-2.88-1.96-.81-.83-1.46-1.8-1.93-2.93-.47-1.12-.71-2.34-.71-3.65s.24-2.49,.71-3.63c.47-1.14,1.11-2.12,1.91-2.96,.8-.84,1.74-1.5,2.82-2,1.08-.49,2.24-.74,3.48-.74,1.15,0,2.26,.23,3.34,.69,1.08,.46,2.03,1.12,2.88,2,.84,.87,1.5,1.93,1.99,3.17,.49,1.24,.74,2.65,.74,4.23h-14.9c.09,.92,.33,1.74,.71,2.46,.38,.72,.85,1.34,1.41,1.84,.56,.5,1.19,.89,1.87,1.15,.69,.26,1.4,.4,2.14,.4,1.26,0,2.34-.29,3.22-.86,.88-.57,1.57-1.38,2.05-2.41h3.1Z"/>
      <path class="cls-1" d="M102.64,1.68c1.01,.41,1.84,.95,2.5,1.62,.66,.67,1.14,1.42,1.47,2.27,.32,.85,.48,1.71,.48,2.58h-1.27c0-.87-.16-1.67-.48-2.39-.32-.72-.78-1.34-1.36-1.84-.59-.5-1.29-.9-2.12-1.17-.83-.28-1.76-.42-2.79-.42s-1.97,.13-2.81,.38c-.84,.25-1.55,.6-2.15,1.05-.6,.45-1.06,.99-1.38,1.62-.32,.63-.48,1.32-.48,2.08,0,1.31,.54,2.35,1.63,3.13,1.09,.78,2.91,1.42,5.45,1.93,1.33,.27,2.52,.58,3.58,.93,1.05,.34,1.94,.77,2.67,1.27,.73,.5,1.28,1.12,1.65,1.84,.38,.72,.57,1.6,.57,2.63s-.21,1.97-.62,2.82c-.41,.85-1.01,1.57-1.79,2.17-.78,.6-1.72,1.06-2.81,1.38-1.09,.32-2.3,.48-3.63,.48-1.03,0-2.07-.15-3.1-.45-1.04-.3-1.97-.77-2.79-1.39-.82-.63-1.49-1.43-1.99-2.41-.51-.97-.76-2.11-.76-3.42h1.27c0,1.1,.21,2.05,.64,2.86,.43,.8,.98,1.47,1.67,2,.69,.52,1.48,.92,2.36,1.17,.88,.25,1.79,.38,2.7,.38,2.34,0,4.19-.5,5.54-1.48,1.35-.99,2.03-2.35,2.03-4.07,0-.74-.13-1.38-.38-1.93-.25-.55-.67-1.04-1.26-1.47-.58-.43-1.35-.81-2.29-1.14-.94-.33-2.11-.64-3.51-.92-1.05-.21-2.07-.46-3.05-.76-.97-.3-1.84-.69-2.6-1.17-.76-.48-1.36-1.08-1.81-1.78-.45-.7-.67-1.57-.67-2.61,0-.96,.19-1.84,.59-2.62,.39-.79,.93-1.45,1.63-2.01,.7-.55,1.55-.98,2.55-1.3,1-.31,2.1-.46,3.32-.46,1.37,0,2.57,.21,3.58,.62h0Z"/>
      <path class="cls-1" d="M126.77,25.61h-1.28V14.9c0-1.95-.51-3.47-1.53-4.58-1.02-1.1-2.51-1.65-4.46-1.65-.9,0-1.73,.16-2.51,.47-.78,.31-1.45,.75-2.01,1.31-.56,.56-1.01,1.22-1.34,1.98-.33,.76-.5,1.58-.5,2.48v10.7h-1.28V0h1.28V10.84c.64-1.06,1.51-1.89,2.62-2.51,1.1-.62,2.36-.93,3.78-.93,2.29,0,4.07,.67,5.34,2,1.26,1.34,1.89,3.16,1.89,5.48v10.73h0Z"/>
      <path class="cls-1" d="M141.84,24.11c.92-.42,1.72-.99,2.41-1.71,.69-.72,1.23-1.56,1.62-2.54,.39-.97,.58-2,.58-3.1s-.19-2.17-.58-3.15c-.39-.98-.93-1.84-1.62-2.59-.69-.75-1.5-1.32-2.41-1.75-.92-.42-1.9-.64-2.96-.64s-2.01,.21-2.93,.64c-.92,.42-1.72,1-2.41,1.75-.68,.74-1.23,1.61-1.63,2.59-.4,.98-.6,2.04-.6,3.15s.2,2.13,.6,3.1c.4,.97,.95,1.82,1.63,2.54,.69,.72,1.5,1.29,2.41,1.71,.92,.42,1.89,.63,2.93,.63s2.04-.21,2.96-.63h0Zm.46-16c1.08,.49,2.01,1.17,2.82,2.02,.8,.85,1.44,1.85,1.91,2.99,.47,1.14,.7,2.35,.7,3.64s-.24,2.49-.7,3.61c-.47,1.12-1.11,2.1-1.91,2.94-.8,.84-1.74,1.5-2.82,1.98-1.08,.48-2.22,.73-3.44,.73s-2.35-.24-3.42-.73c-1.07-.48-2-1.14-2.8-1.98-.8-.84-1.44-1.82-1.91-2.94-.47-1.12-.7-2.32-.7-3.61s.24-2.51,.7-3.64c.47-1.14,1.11-2.14,1.91-2.99,.8-.85,1.73-1.52,2.8-2.02,1.07-.5,2.21-.74,3.42-.74s2.36,.25,3.44,.74h0Z"/>
      <polygon class="cls-1" points="166.76 25.61 165.39 25.61 160.64 9.98 155.88 25.61 154.51 25.61 149.1 7.88 150.45 7.88 155.2 23.51 159.94 7.88 161.33 7.88 166.08 23.51 170.82 7.88 172.17 7.88 166.76 25.61 166.76 25.61"/>
      <path class="cls-1" d="M188.96,15.47c-.83-.63-1.91-.95-3.23-.95h-7.47v8.26h7.57c1.29,0,2.34-.36,3.16-1.08,.81-.72,1.22-1.74,1.22-3.05,0-1.49-.42-2.55-1.24-3.18h0Zm-10.7-3.74h7.47c.44,0,.88-.06,1.34-.18,.46-.13,.87-.34,1.24-.62,.37-.29,.66-.66,.89-1.12,.23-.46,.34-1.02,.34-1.69,0-1.28-.36-2.21-1.07-2.77-.71-.56-1.67-.84-2.86-.84h-7.36v7.23h0Zm14.35,9.64c-.35,.85-.84,1.59-1.48,2.22-.64,.63-1.43,1.12-2.35,1.48-.92,.35-1.95,.53-3.1,.53h-10.36V1.72h10.29c1.06,0,2.01,.16,2.86,.47,.85,.31,1.56,.75,2.15,1.31,.59,.56,1.04,1.24,1.36,2.03,.32,.79,.48,1.67,.48,2.63,0,.89-.24,1.8-.72,2.7-.48,.91-1.24,1.62-2.26,2.15,1.3,.46,2.24,1.2,2.8,2.22,.57,1.02,.85,2.15,.85,3.39,0,.99-.18,1.91-.52,2.75h0Z"/>
      <path class="cls-1" d="M207.02,22.82c.72-.34,1.36-.81,1.91-1.39,.54-.58,.98-1.28,1.28-2.08,.31-.8,.47-1.65,.47-2.55s-.16-1.78-.47-2.6c-.3-.81-.74-1.52-1.28-2.12-.56-.6-1.19-1.07-1.91-1.43-.72-.36-1.5-.53-2.32-.53s-1.61,.18-2.33,.53c-.72,.36-1.35,.83-1.89,1.43-.54,.6-.96,1.3-1.27,2.12-.31,.81-.47,1.68-.47,2.6s.16,1.75,.47,2.55c.31,.8,.73,1.5,1.27,2.08,.55,.59,1.17,1.05,1.89,1.39,.72,.35,1.5,.52,2.33,.52s1.6-.17,2.32-.52h0Zm1.2-14.64c1.09,.49,2.03,1.17,2.83,2.01,.79,.85,1.41,1.84,1.88,2.98,.45,1.13,.69,2.35,.69,3.63s-.24,2.48-.69,3.6c-.46,1.11-1.08,2.09-1.88,2.93-.8,.84-1.74,1.5-2.83,1.98-1.09,.48-2.26,.72-3.52,.72s-2.43-.24-3.51-.72c-1.08-.48-2.02-1.14-2.81-1.98-.81-.84-1.44-1.81-1.9-2.93-.46-1.11-.69-2.31-.69-3.6s.23-2.49,.69-3.63c.46-1.13,1.09-2.13,1.9-2.98,.79-.85,1.73-1.52,2.81-2.01,1.08-.49,2.25-.74,3.51-.74s2.44,.24,3.52,.74h0Z"/>
      <path class="cls-1" d="M227.29,22.82c.72-.34,1.35-.81,1.91-1.39,.55-.58,.98-1.28,1.29-2.08,.31-.8,.46-1.65,.46-2.55s-.16-1.78-.46-2.6c-.31-.81-.74-1.52-1.29-2.12-.56-.6-1.19-1.07-1.91-1.43-.72-.36-1.5-.53-2.33-.53s-1.6,.18-2.32,.53c-.72,.36-1.35,.83-1.9,1.43-.53,.6-.96,1.3-1.27,2.12-.31,.81-.47,1.68-.47,2.6s.16,1.75,.47,2.55c.31,.8,.74,1.5,1.27,2.08,.55,.59,1.18,1.05,1.9,1.39,.72,.35,1.5,.52,2.32,.52s1.6-.17,2.33-.52h0Zm1.2-14.64c1.09,.49,2.03,1.17,2.82,2.01,.79,.85,1.42,1.84,1.88,2.98,.45,1.13,.68,2.35,.68,3.63s-.23,2.48-.68,3.6c-.46,1.11-1.09,2.09-1.88,2.93-.79,.84-1.73,1.5-2.82,1.98-1.09,.48-2.27,.72-3.53,.72s-2.43-.24-3.51-.72c-1.08-.48-2.02-1.14-2.82-1.98-.81-.84-1.43-1.81-1.89-2.93-.46-1.11-.69-2.31-.69-3.6s.23-2.49,.69-3.63c.46-1.13,1.08-2.13,1.89-2.98,.8-.85,1.74-1.52,2.82-2.01,1.08-.49,2.25-.74,3.51-.74s2.44,.24,3.53,.74h0Z"/>
      <path class="cls-1" d="M245.1,25.61c-1.03,.11-1.98,.06-2.84-.17-.86-.23-1.6-.62-2.2-1.19-.61-.56-1.09-1.27-1.43-2.13-.35-.86-.52-1.85-.52-2.98V10.67h-2.41v-2.79h2.41v-3.78h2.89v3.78h4.03v2.79h-4.03v8.47c0,.78,.11,1.42,.33,1.93,.22,.5,.52,.9,.89,1.19,.38,.28,.81,.48,1.31,.58,.49,.1,1.02,.13,1.57,.09v2.68h0Z"/>
      <path class="cls-1" d="M263.21,25.61h-2.89V14.84c0-1.38-.37-2.51-1.09-3.39-.72-.88-1.81-1.32-3.26-1.32-.66,0-1.28,.12-1.85,.36-.58,.24-1.07,.57-1.48,.98-.41,.41-.74,.9-.96,1.46-.23,.56-.34,1.18-.34,1.84v10.84h-2.92V.06h2.92V9.67c.6-.69,1.33-1.23,2.19-1.64,.86-.4,1.82-.6,2.88-.6s2.04,.18,2.89,.55c.85,.37,1.56,.88,2.15,1.55,.59,.67,1.03,1.46,1.33,2.38,.29,.92,.45,1.93,.45,3.03v10.67h0Z"/>
      <polygon class="cls-1" points="0 35.13 107.16 35.13 107.16 34.87 0 34.87 0 35.13 0 35.13"/>
      <polygon class="cls-1" points="156.05 35.13 263.21 35.13 263.21 34.87 156.05 34.87 156.05 35.13 156.05 35.13"/>
      <polygon class="cls-1" points="116.53 38.36 115.25 38.36 115.25 37.05 116.53 37.05 116.53 38.36 116.53 38.36"/>
      <path class="cls-1" d="M124.61,37.92c-.54,.4-1.17,.6-1.91,.6-.46,0-.88-.09-1.27-.27-.41-.18-.75-.42-1.05-.73-.3-.31-.53-.68-.71-1.09-.18-.41-.26-.86-.26-1.34s.08-.92,.26-1.34c.17-.42,.41-.79,.71-1.1,.3-.31,.64-.55,1.05-.74,.39-.18,.82-.27,1.27-.27,.37,0,.71,.05,1.03,.16,.32,.11,.62,.26,.87,.44,.26,.19,.49,.42,.69,.69,.2,.27,.34,.57,.46,.9h-1.16c-.18-.36-.44-.64-.77-.86-.32-.22-.7-.33-1.13-.33-.31,0-.6,.07-.87,.2-.26,.13-.5,.31-.7,.53-.2,.22-.36,.48-.47,.77-.12,.3-.17,.62-.17,.95s.05,.66,.17,.95c.11,.3,.27,.55,.47,.77,.2,.22,.43,.39,.7,.52,.27,.13,.55,.19,.87,.19,.43,0,.81-.11,1.14-.33,.33-.22,.58-.51,.76-.87h1.16c-.22,.66-.6,1.19-1.14,1.59h0Z"/>
      <path class="cls-1" d="M132.78,37.33c.26-.13,.5-.3,.7-.51,.2-.22,.36-.48,.47-.77,.11-.3,.17-.61,.17-.94s-.06-.66-.17-.96c-.11-.31-.27-.57-.47-.79-.21-.22-.44-.4-.7-.53-.27-.13-.56-.2-.87-.2s-.59,.07-.85,.2c-.27,.13-.5,.31-.7,.53-.2,.22-.36,.48-.47,.79-.11,.3-.17,.62-.17,.96s.06,.64,.17,.94c.12,.3,.28,.56,.47,.77,.2,.22,.43,.39,.7,.51,.26,.13,.55,.19,.85,.19s.6-.06,.87-.19h0Zm.44-5.42c.41,.18,.75,.43,1.04,.75,.3,.31,.52,.68,.7,1.1,.17,.42,.25,.87,.25,1.34s-.08,.92-.25,1.33c-.17,.41-.4,.77-.7,1.08-.29,.31-.64,.55-1.04,.73-.41,.18-.84,.27-1.31,.27s-.9-.09-1.3-.27c-.39-.18-.75-.42-1.04-.73-.3-.31-.53-.67-.7-1.08-.17-.41-.25-.85-.25-1.33s.08-.92,.25-1.34c.17-.42,.4-.79,.7-1.1,.3-.31,.65-.56,1.04-.75,.4-.18,.84-.27,1.3-.27s.9,.09,1.31,.27h0Z"/>
      <path class="cls-1" d="M147.96,38.36h-1.08v-4.09c0-.51-.12-.91-.36-1.2-.24-.29-.62-.44-1.12-.44-.22,0-.43,.05-.62,.13-.19,.09-.36,.21-.49,.36-.14,.15-.25,.33-.33,.54-.07,.21-.11,.43-.11,.68v4.01h-1.07v-4.09c0-.51-.13-.91-.37-1.2-.26-.29-.62-.44-1.1-.44-.22,0-.43,.05-.62,.13-.19,.09-.36,.21-.5,.36-.14,.15-.25,.33-.32,.54-.08,.21-.11,.43-.11,.68v4.01h-1.09v-6.56h1.05v.71c.21-.27,.45-.49,.75-.64,.3-.16,.63-.23,.99-.23,.47,0,.87,.1,1.21,.29,.34,.2,.61,.47,.81,.83,.21-.34,.48-.61,.82-.81,.35-.2,.75-.31,1.23-.31,.76,0,1.36,.24,1.78,.71,.43,.48,.64,1.13,.64,1.95v4.06h0Z"/>
    </g>
  </g>
</svg>
