<svg width="15" height="16" viewBox="0 0 15 16" fill="#272C49" xmlns="http://www.w3.org/2000/svg">
<path d="M0 15C0 12.7909 1.79086 11 4 11H4.20068C4.47424 11 4.74489 11.0561 4.9959 11.1649L6.70479 11.9054C7.21214 12.1253 7.78786 12.1253 8.29521 11.9054L10.0041 11.1649C10.2551 11.0561 10.5258 11 10.7993 11H11C13.2091 11 15 12.7909 15 15V15C15 15.5523 14.5523 16 14 16H1C0.447715 16 0 15.5523 0 15V15Z"/>
<path d="M4 4C4 1.79086 5.79086 0 8 0V0C10.2091 0 12 1.79086 12 4V5C12 7.20914 10.2091 9 8 9V9C5.79086 9 4 7.20914 4 5V4Z" />
</svg>
