<svg width="19" height="24" viewBox="0 0 19 24" fill="none" xmlns="http://www.w3.org/2000/svg">
<path d="M9.39522 18.0566L7.67959 16.9617L5.65881 17.2057L4.59077 15.4726L2.66406 14.8155L2.45059 12.7912L1 11.3632L1.68934 9.44739L1 7.53152L2.45059 6.10352L2.66411 4.07927L4.59081 3.42217L5.65881 1.68911L7.67959 1.93305L9.39522 0.838095L11.1108 1.93305L13.1316 1.68911L14.1997 3.42217L16.1264 4.07927L16.3398 6.10352L17.7904 7.53152L17.1011 9.44739L17.7904 11.3632L16.3398 12.7913L16.1263 14.8155L14.1996 15.4726L13.1316 17.2057L11.1108 16.9617L9.39522 18.0566Z" stroke="#AA8942" stroke-width="1.25" stroke-miterlimit="10"/>
<path d="M14.1653 9.44715C14.1653 12.0811 12.0301 14.2163 9.39611 14.2163C6.76216 14.2163 4.62695 12.0811 4.62695 9.44715C4.62695 6.8132 6.76216 4.67795 9.39611 4.67795C12.0301 4.67795 14.1653 6.8132 14.1653 9.44715Z" stroke="#AA8942" stroke-width="1.25" stroke-miterlimit="10"/>
<path d="M14.6597 15.0878L16.6352 21.2621L13.9447 21.1142L11.8397 22.7964L10.0703 17.2662" stroke="#AA8942" stroke-width="1.25" stroke-miterlimit="10"/>
<path d="M4.1297 15.0878L2.1543 21.2621L4.84478 21.1142L6.94975 22.7964L8.71914 17.2662" stroke="#AA8942" stroke-width="1.25" stroke-miterlimit="10"/>
</svg>
